G75*
G70*
%OFA0B0*%
%FSLAX24Y24*%
%IPPOS*%
%LPD*%
%AMOC8*
5,1,8,0,0,1.08239X$1,22.5*
%
%ADD10C,0.0476*%
%ADD11C,0.0554*%
%ADD12C,0.0594*%
%ADD13C,0.0397*%
%ADD14C,0.0600*%
%ADD15C,0.0515*%
%ADD16C,0.0460*%
%ADD17C,0.0280*%
%ADD18C,0.0080*%
%ADD19C,0.0278*%
D10*
X008968Y024381D03*
X009968Y024381D03*
X010968Y024381D03*
D11*
X006756Y021375D03*
X005756Y021375D03*
D12*
X010600Y012964D03*
X011600Y012964D03*
D13*
X007348Y025709D03*
X005163Y025709D03*
D14*
X011500Y008059D03*
X011500Y007059D03*
X011500Y006059D03*
X011500Y005059D03*
D15*
X006756Y012332D03*
X005756Y012332D03*
D16*
X010600Y011339D03*
X011100Y011339D03*
X011100Y010839D03*
X010600Y010839D03*
X010600Y010339D03*
X011100Y010339D03*
X011100Y009839D03*
X010600Y009839D03*
D17*
X009800Y008809D03*
X009290Y008339D03*
X007650Y007609D03*
X006740Y006539D03*
X006740Y005589D03*
X006600Y004659D03*
X006050Y004659D03*
X005740Y005589D03*
X005740Y006539D03*
X004800Y006709D03*
X004800Y007209D03*
X003800Y007509D03*
X003750Y008209D03*
X004750Y008809D03*
X005900Y009009D03*
X006950Y009009D03*
X005350Y010909D03*
X004800Y010909D03*
X003980Y010289D03*
X003700Y011309D03*
X003700Y012859D03*
X006550Y013359D03*
X008800Y010959D03*
X007650Y004659D03*
X007150Y004659D03*
X008000Y003159D03*
X006200Y003209D03*
X003650Y001459D03*
X002950Y003709D03*
X001950Y006109D03*
X004150Y017709D03*
X005550Y018409D03*
X004550Y019409D03*
X004100Y019409D03*
X003700Y019809D03*
X003350Y020359D03*
X001800Y020259D03*
X001000Y022909D03*
X001400Y024609D03*
X001400Y025109D03*
X002000Y026059D03*
X004500Y023409D03*
X005750Y025109D03*
X006150Y025109D03*
X006600Y025109D03*
X007450Y024259D03*
X007200Y023959D03*
X008500Y023009D03*
X010150Y021309D03*
X010990Y022889D03*
X011310Y022889D03*
X011700Y022889D03*
X011660Y019339D03*
X011520Y019089D03*
X011380Y019339D03*
X007500Y020209D03*
X004600Y026009D03*
D18*
X000490Y026209D02*
X000490Y000899D01*
X005468Y000899D01*
X005468Y002530D01*
X012021Y002530D01*
X012021Y026209D01*
X004739Y026209D01*
X004803Y026144D01*
X004840Y026056D01*
X004840Y025961D01*
X004803Y025873D01*
X004736Y025805D01*
X004648Y025769D01*
X004552Y025769D01*
X004464Y025805D01*
X004397Y025873D01*
X004360Y025961D01*
X004360Y026056D01*
X004397Y026144D01*
X004461Y026209D01*
X002189Y026209D01*
X002203Y026194D01*
X002240Y026106D01*
X002240Y026011D01*
X002203Y025923D01*
X002136Y025855D01*
X002048Y025819D01*
X001952Y025819D01*
X001864Y025855D01*
X001797Y025923D01*
X001760Y026011D01*
X001760Y026106D01*
X001797Y026194D01*
X001811Y026209D01*
X000490Y026209D01*
X000490Y026193D02*
X001796Y026193D01*
X001763Y026114D02*
X000490Y026114D01*
X000490Y026036D02*
X001760Y026036D01*
X001782Y025957D02*
X000490Y025957D01*
X000490Y025879D02*
X001841Y025879D01*
X002159Y025879D02*
X004394Y025879D01*
X004362Y025957D02*
X002218Y025957D01*
X002240Y026036D02*
X004360Y026036D01*
X004384Y026114D02*
X002237Y026114D01*
X002204Y026193D02*
X004445Y026193D01*
X004476Y025800D02*
X000490Y025800D01*
X000490Y025722D02*
X004845Y025722D01*
X004845Y025718D02*
X005154Y025718D01*
X005154Y026027D01*
X005132Y026027D01*
X005070Y026015D01*
X005012Y025991D01*
X004960Y025956D01*
X004916Y025911D01*
X004881Y025859D01*
X004857Y025801D01*
X004845Y025740D01*
X004845Y025718D01*
X004845Y025699D02*
X004845Y025677D01*
X004857Y025616D01*
X004881Y025558D01*
X004916Y025506D01*
X004960Y025461D01*
X005012Y025426D01*
X005070Y025402D01*
X005132Y025390D01*
X005154Y025390D01*
X005154Y025699D01*
X005172Y025699D01*
X005172Y025390D01*
X005194Y025390D01*
X005256Y025402D01*
X005314Y025426D01*
X005366Y025461D01*
X005410Y025506D01*
X005445Y025558D01*
X005469Y025616D01*
X005481Y025677D01*
X005481Y025699D01*
X005172Y025699D01*
X005172Y025718D01*
X005154Y025718D01*
X005154Y025699D01*
X004845Y025699D01*
X004851Y025643D02*
X000490Y025643D01*
X000490Y025565D02*
X004878Y025565D01*
X004935Y025486D02*
X000490Y025486D01*
X000490Y025408D02*
X005057Y025408D01*
X005154Y025408D02*
X005172Y025408D01*
X005172Y025486D02*
X005154Y025486D01*
X005154Y025565D02*
X005172Y025565D01*
X005172Y025643D02*
X005154Y025643D01*
X005172Y025718D02*
X005481Y025718D01*
X005481Y025740D01*
X005469Y025801D01*
X005445Y025859D01*
X005410Y025911D01*
X005366Y025956D01*
X005314Y025991D01*
X005256Y026015D01*
X005194Y026027D01*
X005172Y026027D01*
X005172Y025718D01*
X005172Y025722D02*
X005154Y025722D01*
X005154Y025800D02*
X005172Y025800D01*
X005172Y025879D02*
X005154Y025879D01*
X005154Y025957D02*
X005172Y025957D01*
X005364Y025957D02*
X007147Y025957D01*
X007145Y025956D02*
X007101Y025911D01*
X007066Y025859D01*
X007042Y025801D01*
X007030Y025740D01*
X007030Y025718D01*
X007339Y025718D01*
X007339Y026027D01*
X007317Y026027D01*
X007255Y026015D01*
X007197Y025991D01*
X007145Y025956D01*
X007079Y025879D02*
X005432Y025879D01*
X005469Y025800D02*
X007042Y025800D01*
X007030Y025722D02*
X005481Y025722D01*
X005475Y025643D02*
X007036Y025643D01*
X007042Y025616D02*
X007066Y025558D01*
X007101Y025506D01*
X007145Y025461D01*
X007197Y025426D01*
X007255Y025402D01*
X007317Y025390D01*
X007339Y025390D01*
X007339Y025699D01*
X007357Y025699D01*
X007357Y025390D01*
X007379Y025390D01*
X007441Y025402D01*
X007499Y025426D01*
X007551Y025461D01*
X007595Y025506D01*
X007630Y025558D01*
X007654Y025616D01*
X007666Y025677D01*
X007666Y025699D01*
X007357Y025699D01*
X007357Y025718D01*
X007339Y025718D01*
X007339Y025699D01*
X007030Y025699D01*
X007030Y025677D01*
X007042Y025616D01*
X007063Y025565D02*
X005448Y025565D01*
X005391Y025486D02*
X007120Y025486D01*
X007242Y025408D02*
X005269Y025408D01*
X005356Y025166D02*
X005354Y025162D01*
X005329Y025149D01*
X005324Y025149D01*
X005315Y025141D01*
X005303Y025135D01*
X005302Y025131D01*
X005280Y025112D01*
X005275Y025112D01*
X005267Y025102D01*
X005258Y025094D01*
X005257Y025090D01*
X005239Y025067D01*
X005234Y025066D01*
X005229Y025055D01*
X005220Y025045D01*
X005221Y025041D01*
X005207Y025015D01*
X001621Y025015D01*
X001603Y024973D02*
X001640Y025061D01*
X001640Y025156D01*
X001603Y025244D01*
X001536Y025312D01*
X001448Y025349D01*
X001352Y025349D01*
X001264Y025312D01*
X001197Y025244D01*
X001160Y025156D01*
X001160Y025061D01*
X001197Y024973D01*
X001264Y024905D01*
X001352Y024869D01*
X001448Y024869D01*
X001536Y024905D01*
X001603Y024973D01*
X001567Y024937D02*
X005180Y024937D01*
X005182Y024943D02*
X005178Y024930D01*
X005180Y024927D01*
X005178Y024898D01*
X005175Y024895D01*
X005176Y024882D01*
X005175Y024869D01*
X005177Y024866D01*
X005180Y024837D01*
X005178Y024833D01*
X005181Y024821D01*
X005182Y024809D01*
X005186Y024806D01*
X005194Y024777D01*
X005193Y024773D01*
X005199Y024762D01*
X005202Y024750D01*
X005206Y024748D01*
X005220Y024722D01*
X005219Y024717D01*
X005227Y024708D01*
X005233Y024697D01*
X005237Y024695D01*
X005256Y024672D01*
X005256Y024668D01*
X005266Y024660D01*
X005274Y024650D01*
X005279Y024650D01*
X005301Y024631D01*
X005303Y024627D01*
X005314Y024621D01*
X005323Y024613D01*
X005328Y024614D01*
X005354Y024600D01*
X005356Y024596D01*
X005368Y024592D01*
X005379Y024587D01*
X005384Y024588D01*
X005412Y024580D01*
X005415Y024576D01*
X005427Y024575D01*
X005439Y024572D01*
X005443Y024574D01*
X005472Y024571D01*
X005476Y024568D01*
X005488Y024570D01*
X005501Y024569D01*
X005504Y024572D01*
X005533Y024575D01*
X005537Y024573D01*
X005549Y024577D01*
X005561Y024578D01*
X005564Y024581D01*
X005591Y024590D01*
X005596Y024589D01*
X005607Y024595D01*
X005619Y024599D01*
X005621Y024602D01*
X005646Y024616D01*
X005650Y024616D01*
X005660Y024624D01*
X005671Y024630D01*
X005673Y024634D01*
X005695Y024652D01*
X005699Y024653D01*
X005707Y024662D01*
X005717Y024670D01*
X005717Y024675D01*
X005736Y024697D01*
X005740Y024698D01*
X005746Y024709D01*
X005754Y024719D01*
X005753Y024723D01*
X005767Y024749D01*
X005771Y024751D01*
X005775Y024763D01*
X005781Y024774D01*
X005780Y024778D01*
X005788Y024805D01*
X005791Y024808D01*
X005793Y024821D01*
X005797Y024833D01*
X005795Y024837D01*
X005798Y024865D01*
X005801Y024869D01*
X005800Y024881D01*
X005801Y024894D01*
X005798Y024897D01*
X005796Y024926D01*
X005798Y024930D01*
X005794Y024942D01*
X005793Y024954D01*
X005790Y024957D01*
X005782Y024985D01*
X005783Y024989D01*
X005778Y025000D01*
X005774Y025012D01*
X005770Y025015D01*
X005929Y025015D01*
X005947Y024973D02*
X005910Y025061D01*
X005910Y025156D01*
X005947Y025244D01*
X006014Y025312D01*
X006102Y025349D01*
X006198Y025349D01*
X006286Y025312D01*
X006353Y025244D01*
X006375Y025192D01*
X006397Y025244D01*
X006464Y025312D01*
X006552Y025349D01*
X006648Y025349D01*
X006736Y025312D01*
X006803Y025244D01*
X006840Y025156D01*
X006840Y025136D01*
X006850Y025141D01*
X006860Y025149D01*
X006864Y025149D01*
X006890Y025162D01*
X006892Y025166D01*
X006904Y025170D01*
X006915Y025176D01*
X006919Y025175D01*
X006947Y025183D01*
X006950Y025186D01*
X006962Y025188D01*
X006974Y025191D01*
X006978Y025189D01*
X007005Y025192D01*
X007007Y025193D01*
X007013Y025193D01*
X007015Y025195D01*
X007025Y025194D01*
X007036Y025195D01*
X007038Y025193D01*
X007044Y025193D01*
X007045Y025192D01*
X007072Y025189D01*
X007076Y025191D01*
X007088Y025188D01*
X007100Y025186D01*
X007103Y025183D01*
X007131Y025174D01*
X007135Y025176D01*
X007146Y025170D01*
X007158Y025166D01*
X007160Y025162D01*
X007186Y025148D01*
X007190Y025149D01*
X007200Y025141D01*
X007211Y025135D01*
X007212Y025130D01*
X007234Y025112D01*
X007239Y025112D01*
X007246Y025102D01*
X007256Y025094D01*
X007257Y025089D01*
X007275Y025067D01*
X007279Y025066D01*
X007285Y025054D01*
X007293Y025045D01*
X007292Y025040D01*
X007306Y025015D01*
X007309Y025012D01*
X007313Y025000D01*
X007319Y024989D01*
X007317Y024985D01*
X007325Y024957D01*
X007329Y024954D01*
X007330Y024942D01*
X007333Y024930D01*
X007331Y024926D01*
X007334Y024897D01*
X007336Y024894D01*
X007335Y024881D01*
X007336Y024869D01*
X007333Y024865D01*
X007330Y024837D01*
X007332Y024833D01*
X007328Y024821D01*
X007327Y024808D01*
X007324Y024805D01*
X007315Y024778D01*
X007316Y024774D01*
X007310Y024763D01*
X007306Y024751D01*
X007303Y024749D01*
X007289Y024723D01*
X007289Y024719D01*
X007281Y024709D01*
X007275Y024698D01*
X007271Y024697D01*
X007253Y024675D01*
X007252Y024670D01*
X007243Y024662D01*
X007234Y024653D01*
X007230Y024652D01*
X007208Y024634D01*
X007207Y024630D01*
X007196Y024624D01*
X007186Y024616D01*
X007182Y024616D01*
X007156Y024602D01*
X007154Y024599D01*
X007142Y024595D01*
X007131Y024589D01*
X007127Y024590D01*
X007100Y024581D01*
X007097Y024578D01*
X007084Y024577D01*
X007072Y024573D01*
X007068Y024575D01*
X007040Y024572D01*
X007036Y024569D01*
X007024Y024570D01*
X007011Y024568D01*
X007008Y024571D01*
X006979Y024574D01*
X006975Y024572D01*
X006963Y024575D01*
X006950Y024576D01*
X006947Y024580D01*
X006919Y024588D01*
X006915Y024587D01*
X006904Y024592D01*
X006891Y024596D01*
X006889Y024600D01*
X006863Y024614D01*
X006859Y024613D01*
X006849Y024621D01*
X006838Y024627D01*
X006837Y024631D01*
X006814Y024650D01*
X006809Y024650D01*
X006802Y024660D01*
X006792Y024668D01*
X006791Y024672D01*
X006773Y024695D01*
X006768Y024697D01*
X006763Y024708D01*
X006755Y024717D01*
X006755Y024722D01*
X006741Y024748D01*
X006737Y024750D01*
X006734Y024762D01*
X006728Y024773D01*
X006729Y024777D01*
X006721Y024806D01*
X006718Y024809D01*
X006717Y024821D01*
X006713Y024833D01*
X006715Y024837D01*
X006713Y024866D01*
X006710Y024869D01*
X006711Y024882D01*
X006710Y024894D01*
X006648Y024869D01*
X006552Y024869D01*
X006464Y024905D01*
X006397Y024973D01*
X006375Y025025D01*
X006353Y024973D01*
X006286Y024905D01*
X006198Y024869D01*
X006102Y024869D01*
X006014Y024905D01*
X005947Y024973D01*
X005983Y024937D02*
X005796Y024937D01*
X005797Y024858D02*
X006713Y024858D01*
X006729Y024780D02*
X005780Y024780D01*
X005741Y024701D02*
X006766Y024701D01*
X006846Y024623D02*
X005659Y024623D01*
X005311Y024623D02*
X001640Y024623D01*
X001640Y024656D02*
X001603Y024744D01*
X001536Y024812D01*
X001448Y024849D01*
X001352Y024849D01*
X001264Y024812D01*
X001197Y024744D01*
X001160Y024656D01*
X001160Y024561D01*
X001197Y024473D01*
X001264Y024405D01*
X001352Y024369D01*
X001448Y024369D01*
X001536Y024405D01*
X001603Y024473D01*
X001640Y024561D01*
X001640Y024656D01*
X001621Y024701D02*
X005231Y024701D01*
X005193Y024780D02*
X001568Y024780D01*
X001633Y024544D02*
X008670Y024544D01*
X008682Y024572D02*
X008630Y024448D01*
X008630Y024313D01*
X008682Y024189D01*
X008777Y024094D01*
X008901Y024043D01*
X009035Y024043D01*
X009159Y024094D01*
X009254Y024189D01*
X009306Y024313D01*
X009306Y024448D01*
X009254Y024572D01*
X009159Y024667D01*
X009035Y024718D01*
X008901Y024718D01*
X008777Y024667D01*
X008682Y024572D01*
X008732Y024623D02*
X007194Y024623D01*
X007277Y024701D02*
X008859Y024701D01*
X009077Y024701D02*
X009859Y024701D01*
X009901Y024718D02*
X009777Y024667D01*
X009682Y024572D01*
X009630Y024448D01*
X009630Y024313D01*
X009682Y024189D01*
X009777Y024094D01*
X009901Y024043D01*
X010035Y024043D01*
X010159Y024094D01*
X010254Y024189D01*
X010306Y024313D01*
X010306Y024448D01*
X010254Y024572D01*
X010159Y024667D01*
X010035Y024718D01*
X009901Y024718D01*
X010077Y024701D02*
X010859Y024701D01*
X010901Y024718D02*
X010777Y024667D01*
X010682Y024572D01*
X010630Y024448D01*
X010630Y024313D01*
X010682Y024189D01*
X010777Y024094D01*
X010901Y024043D01*
X011035Y024043D01*
X011159Y024094D01*
X011254Y024189D01*
X011306Y024313D01*
X011306Y024448D01*
X011254Y024572D01*
X011159Y024667D01*
X011035Y024718D01*
X010901Y024718D01*
X011077Y024701D02*
X012021Y024701D01*
X012021Y024623D02*
X011204Y024623D01*
X011266Y024544D02*
X012021Y024544D01*
X012021Y024466D02*
X011299Y024466D01*
X011306Y024387D02*
X012021Y024387D01*
X012021Y024309D02*
X011304Y024309D01*
X011271Y024230D02*
X012021Y024230D01*
X012021Y024152D02*
X011217Y024152D01*
X011109Y024073D02*
X012021Y024073D01*
X012021Y023995D02*
X007440Y023995D01*
X007440Y024006D02*
X007435Y024019D01*
X007498Y024019D01*
X007586Y024055D01*
X007653Y024123D01*
X007690Y024211D01*
X007690Y024306D01*
X007653Y024394D01*
X007586Y024462D01*
X007498Y024499D01*
X007402Y024499D01*
X007314Y024462D01*
X007247Y024394D01*
X007210Y024306D01*
X007210Y024211D01*
X007215Y024199D01*
X007152Y024199D01*
X007064Y024162D01*
X006997Y024094D01*
X006960Y024006D01*
X006960Y023911D01*
X006997Y023823D01*
X007064Y023755D01*
X007152Y023719D01*
X007248Y023719D01*
X007336Y023755D01*
X007403Y023823D01*
X007440Y023911D01*
X007440Y024006D01*
X007440Y023916D02*
X012021Y023916D01*
X012021Y023838D02*
X007410Y023838D01*
X007340Y023759D02*
X012021Y023759D01*
X012021Y023681D02*
X000490Y023681D01*
X000490Y023759D02*
X007060Y023759D01*
X006990Y023838D02*
X000490Y023838D01*
X000490Y023916D02*
X006960Y023916D01*
X006960Y023995D02*
X000490Y023995D01*
X000490Y024073D02*
X006988Y024073D01*
X007054Y024152D02*
X000490Y024152D01*
X000490Y024230D02*
X007210Y024230D01*
X007211Y024309D02*
X000490Y024309D01*
X000490Y024387D02*
X001307Y024387D01*
X001204Y024466D02*
X000490Y024466D01*
X000490Y024544D02*
X001167Y024544D01*
X001160Y024623D02*
X000490Y024623D01*
X000490Y024701D02*
X001179Y024701D01*
X001232Y024780D02*
X000490Y024780D01*
X000490Y024858D02*
X005178Y024858D01*
X005182Y024943D02*
X005183Y024955D01*
X005187Y024958D01*
X005195Y024986D01*
X005194Y024990D01*
X005200Y025001D01*
X005203Y025013D01*
X005207Y025015D01*
X005257Y025094D02*
X001640Y025094D01*
X001633Y025172D02*
X005373Y025172D01*
X005368Y025170D02*
X005356Y025166D01*
X005368Y025170D02*
X005380Y025176D01*
X005384Y025175D01*
X005412Y025183D01*
X005414Y025186D01*
X005427Y025188D01*
X005439Y025191D01*
X005443Y025189D01*
X005470Y025192D01*
X005471Y025193D01*
X005477Y025193D01*
X005479Y025195D01*
X005490Y025194D01*
X005500Y025195D01*
X005502Y025193D01*
X005508Y025193D01*
X005510Y025192D01*
X005536Y025189D01*
X005540Y025191D01*
X005552Y025188D01*
X005565Y025186D01*
X005568Y025183D01*
X005595Y025174D01*
X005600Y025176D01*
X005611Y025170D01*
X005623Y025166D01*
X005625Y025162D01*
X005650Y025148D01*
X005655Y025149D01*
X005664Y025141D01*
X005675Y025135D01*
X005677Y025130D01*
X005699Y025112D01*
X005703Y025112D01*
X005711Y025102D01*
X005721Y025094D01*
X005721Y025089D01*
X005739Y025067D01*
X005744Y025066D01*
X005749Y025054D01*
X005757Y025045D01*
X005757Y025040D01*
X005770Y025015D01*
X005721Y025094D02*
X005910Y025094D01*
X005917Y025172D02*
X005606Y025172D01*
X005953Y025251D02*
X001597Y025251D01*
X001495Y025329D02*
X006055Y025329D01*
X006245Y025329D02*
X006505Y025329D01*
X006403Y025251D02*
X006347Y025251D01*
X006371Y025015D02*
X006379Y025015D01*
X006433Y024937D02*
X006317Y024937D01*
X006695Y025329D02*
X012021Y025329D01*
X012021Y025251D02*
X006797Y025251D01*
X006833Y025172D02*
X006908Y025172D01*
X007142Y025172D02*
X012021Y025172D01*
X012021Y025094D02*
X007256Y025094D01*
X007305Y025015D02*
X012021Y025015D01*
X012021Y024937D02*
X007331Y024937D01*
X007332Y024858D02*
X012021Y024858D01*
X012021Y024780D02*
X007315Y024780D01*
X007323Y024466D02*
X001596Y024466D01*
X001493Y024387D02*
X007243Y024387D01*
X007577Y024466D02*
X008638Y024466D01*
X008630Y024387D02*
X007657Y024387D01*
X007689Y024309D02*
X008632Y024309D01*
X008665Y024230D02*
X007690Y024230D01*
X007665Y024152D02*
X008719Y024152D01*
X008828Y024073D02*
X007604Y024073D01*
X008364Y023212D02*
X008297Y023144D01*
X008260Y023056D01*
X008260Y022961D01*
X008297Y022873D01*
X008364Y022805D01*
X008452Y022769D01*
X008548Y022769D01*
X008636Y022805D01*
X008703Y022873D01*
X008740Y022961D01*
X008740Y023056D01*
X008703Y023144D01*
X008636Y023212D01*
X008548Y023249D01*
X008452Y023249D01*
X008364Y023212D01*
X008362Y023210D02*
X004640Y023210D01*
X004636Y023205D02*
X004703Y023273D01*
X004740Y023361D01*
X004740Y023456D01*
X004703Y023544D01*
X004636Y023612D01*
X004548Y023649D01*
X004452Y023649D01*
X004364Y023612D01*
X004297Y023544D01*
X004260Y023456D01*
X004260Y023361D01*
X004297Y023273D01*
X004364Y023205D01*
X004452Y023169D01*
X004548Y023169D01*
X004636Y023205D01*
X004710Y023288D02*
X012021Y023288D01*
X012021Y023210D02*
X008638Y023210D01*
X008709Y023131D02*
X012021Y023131D01*
X012021Y023053D02*
X011875Y023053D01*
X011903Y023024D02*
X011836Y023092D01*
X011748Y023129D01*
X011652Y023129D01*
X011564Y023092D01*
X011497Y023024D01*
X011460Y022936D01*
X011460Y022841D01*
X011497Y022753D01*
X011564Y022685D01*
X011652Y022649D01*
X011748Y022649D01*
X011836Y022685D01*
X011903Y022753D01*
X011940Y022841D01*
X011940Y022936D01*
X011903Y023024D01*
X011924Y022974D02*
X012021Y022974D01*
X012021Y022896D02*
X011940Y022896D01*
X011930Y022817D02*
X012021Y022817D01*
X012021Y022739D02*
X011889Y022739D01*
X011776Y022660D02*
X012021Y022660D01*
X012021Y022582D02*
X000490Y022582D01*
X000490Y022660D02*
X011624Y022660D01*
X011511Y022739D02*
X001169Y022739D01*
X001136Y022705D02*
X001203Y022773D01*
X001240Y022861D01*
X001240Y022956D01*
X001203Y023044D01*
X001136Y023112D01*
X001048Y023149D01*
X000952Y023149D01*
X000864Y023112D01*
X000797Y023044D01*
X000760Y022956D01*
X000760Y022861D01*
X000797Y022773D01*
X000864Y022705D01*
X000952Y022669D01*
X001048Y022669D01*
X001136Y022705D01*
X001222Y022817D02*
X008352Y022817D01*
X008287Y022896D02*
X001240Y022896D01*
X001233Y022974D02*
X008260Y022974D01*
X008260Y023053D02*
X001195Y023053D01*
X001090Y023131D02*
X008291Y023131D01*
X008740Y023053D02*
X011525Y023053D01*
X011476Y022974D02*
X008740Y022974D01*
X008713Y022896D02*
X011460Y022896D01*
X011470Y022817D02*
X008648Y022817D01*
X009109Y024073D02*
X009828Y024073D01*
X009719Y024152D02*
X009217Y024152D01*
X009271Y024230D02*
X009665Y024230D01*
X009632Y024309D02*
X009304Y024309D01*
X009306Y024387D02*
X009630Y024387D01*
X009638Y024466D02*
X009299Y024466D01*
X009266Y024544D02*
X009670Y024544D01*
X009732Y024623D02*
X009204Y024623D01*
X010109Y024073D02*
X010828Y024073D01*
X010719Y024152D02*
X010217Y024152D01*
X010271Y024230D02*
X010665Y024230D01*
X010632Y024309D02*
X010304Y024309D01*
X010306Y024387D02*
X010630Y024387D01*
X010638Y024466D02*
X010299Y024466D01*
X010266Y024544D02*
X010670Y024544D01*
X010732Y024623D02*
X010204Y024623D01*
X012021Y025408D02*
X007454Y025408D01*
X007357Y025408D02*
X007339Y025408D01*
X007339Y025486D02*
X007357Y025486D01*
X007357Y025565D02*
X007339Y025565D01*
X007339Y025643D02*
X007357Y025643D01*
X007357Y025718D02*
X007666Y025718D01*
X007666Y025740D01*
X007654Y025801D01*
X007630Y025859D01*
X007595Y025911D01*
X007551Y025956D01*
X007499Y025991D01*
X007441Y026015D01*
X007379Y026027D01*
X007357Y026027D01*
X007357Y025718D01*
X007357Y025722D02*
X007339Y025722D01*
X007339Y025800D02*
X007357Y025800D01*
X007357Y025879D02*
X007339Y025879D01*
X007339Y025957D02*
X007357Y025957D01*
X007549Y025957D02*
X012021Y025957D01*
X012021Y025879D02*
X007617Y025879D01*
X007654Y025800D02*
X012021Y025800D01*
X012021Y025722D02*
X007666Y025722D01*
X007660Y025643D02*
X012021Y025643D01*
X012021Y025565D02*
X007633Y025565D01*
X007576Y025486D02*
X012021Y025486D01*
X012021Y026036D02*
X004840Y026036D01*
X004838Y025957D02*
X004962Y025957D01*
X004894Y025879D02*
X004806Y025879D01*
X004857Y025800D02*
X004724Y025800D01*
X004816Y026114D02*
X012021Y026114D01*
X012021Y026193D02*
X004755Y026193D01*
X004646Y023602D02*
X012021Y023602D01*
X012021Y023524D02*
X004712Y023524D01*
X004740Y023445D02*
X012021Y023445D01*
X012021Y023367D02*
X004740Y023367D01*
X004360Y023210D02*
X000490Y023210D01*
X000490Y023288D02*
X004290Y023288D01*
X004260Y023367D02*
X000490Y023367D01*
X000490Y023445D02*
X004260Y023445D01*
X004288Y023524D02*
X000490Y023524D01*
X000490Y023602D02*
X004354Y023602D01*
X005542Y021694D02*
X005436Y021588D01*
X005378Y021450D01*
X005378Y021300D01*
X005436Y021161D01*
X005542Y021055D01*
X005680Y020997D01*
X005831Y020997D01*
X005969Y021055D01*
X006075Y021161D01*
X006133Y021300D01*
X006133Y021450D01*
X006075Y021588D01*
X005969Y021694D01*
X005831Y021752D01*
X005680Y021752D01*
X005542Y021694D01*
X005599Y021718D02*
X000490Y021718D01*
X000490Y021640D02*
X005487Y021640D01*
X005424Y021561D02*
X000490Y021561D01*
X000490Y021483D02*
X005392Y021483D01*
X005378Y021404D02*
X000490Y021404D01*
X000490Y021326D02*
X005378Y021326D01*
X005400Y021247D02*
X000490Y021247D01*
X000490Y021169D02*
X005433Y021169D01*
X005507Y021090D02*
X000490Y021090D01*
X000490Y021012D02*
X005646Y021012D01*
X005865Y021012D02*
X006646Y021012D01*
X006680Y020997D02*
X006831Y020997D01*
X006969Y021055D01*
X007075Y021161D01*
X007133Y021300D01*
X007133Y021450D01*
X007075Y021588D01*
X006969Y021694D01*
X006831Y021752D01*
X006680Y021752D01*
X006542Y021694D01*
X006436Y021588D01*
X006378Y021450D01*
X006378Y021300D01*
X006436Y021161D01*
X006542Y021055D01*
X006680Y020997D01*
X006865Y021012D02*
X012021Y021012D01*
X012021Y021090D02*
X010250Y021090D01*
X010286Y021105D02*
X010353Y021173D01*
X010390Y021261D01*
X010390Y021356D01*
X010353Y021444D01*
X010286Y021512D01*
X010198Y021549D01*
X010102Y021549D01*
X010014Y021512D01*
X009947Y021444D01*
X009910Y021356D01*
X009910Y021261D01*
X009947Y021173D01*
X010014Y021105D01*
X010102Y021069D01*
X010198Y021069D01*
X010286Y021105D01*
X010349Y021169D02*
X012021Y021169D01*
X012021Y021247D02*
X010384Y021247D01*
X010390Y021326D02*
X012021Y021326D01*
X012021Y021404D02*
X010370Y021404D01*
X010315Y021483D02*
X012021Y021483D01*
X012021Y021561D02*
X007087Y021561D01*
X007119Y021483D02*
X009985Y021483D01*
X009930Y021404D02*
X007133Y021404D01*
X007133Y021326D02*
X009910Y021326D01*
X009916Y021247D02*
X007111Y021247D01*
X007078Y021169D02*
X009951Y021169D01*
X010050Y021090D02*
X007004Y021090D01*
X006507Y021090D02*
X006004Y021090D01*
X006078Y021169D02*
X006433Y021169D01*
X006400Y021247D02*
X006111Y021247D01*
X006133Y021326D02*
X006378Y021326D01*
X006378Y021404D02*
X006133Y021404D01*
X006119Y021483D02*
X006392Y021483D01*
X006424Y021561D02*
X006087Y021561D01*
X006024Y021640D02*
X006487Y021640D01*
X006599Y021718D02*
X005912Y021718D01*
X006912Y021718D02*
X012021Y021718D01*
X012021Y021640D02*
X007024Y021640D01*
X007452Y020449D02*
X007364Y020412D01*
X007297Y020344D01*
X007260Y020256D01*
X007260Y020161D01*
X007297Y020073D01*
X007364Y020005D01*
X007452Y019969D01*
X007548Y019969D01*
X007636Y020005D01*
X007703Y020073D01*
X007740Y020161D01*
X007740Y020256D01*
X007703Y020344D01*
X007636Y020412D01*
X007548Y020449D01*
X007452Y020449D01*
X007336Y020384D02*
X003590Y020384D01*
X003590Y020406D02*
X003553Y020494D01*
X003486Y020562D01*
X003398Y020599D01*
X003302Y020599D01*
X003214Y020562D01*
X003147Y020494D01*
X003110Y020406D01*
X003110Y020311D01*
X003147Y020223D01*
X003214Y020155D01*
X003302Y020119D01*
X003398Y020119D01*
X003486Y020155D01*
X003553Y020223D01*
X003590Y020311D01*
X003590Y020406D01*
X003567Y020462D02*
X012021Y020462D01*
X012021Y020384D02*
X007664Y020384D01*
X007720Y020305D02*
X012021Y020305D01*
X012021Y020227D02*
X007740Y020227D01*
X007735Y020148D02*
X012021Y020148D01*
X012021Y020070D02*
X007700Y020070D01*
X007602Y019991D02*
X012021Y019991D01*
X012021Y019913D02*
X003917Y019913D01*
X003903Y019944D02*
X003836Y020012D01*
X003748Y020049D01*
X003652Y020049D01*
X003564Y020012D01*
X003497Y019944D01*
X003460Y019856D01*
X003460Y019761D01*
X003497Y019673D01*
X003564Y019605D01*
X003652Y019569D01*
X003748Y019569D01*
X003836Y019605D01*
X003903Y019673D01*
X003940Y019761D01*
X003940Y019856D01*
X003903Y019944D01*
X003857Y019991D02*
X007398Y019991D01*
X007300Y020070D02*
X001950Y020070D01*
X001936Y020055D02*
X002003Y020123D01*
X002040Y020211D01*
X002040Y020306D01*
X002003Y020394D01*
X001936Y020462D01*
X001848Y020499D01*
X001752Y020499D01*
X001664Y020462D01*
X001597Y020394D01*
X001560Y020306D01*
X001560Y020211D01*
X001597Y020123D01*
X001664Y020055D01*
X001752Y020019D01*
X001848Y020019D01*
X001936Y020055D01*
X002014Y020148D02*
X003231Y020148D01*
X003145Y020227D02*
X002040Y020227D01*
X002040Y020305D02*
X003112Y020305D01*
X003110Y020384D02*
X002008Y020384D01*
X001936Y020462D02*
X003133Y020462D01*
X003193Y020541D02*
X000490Y020541D01*
X000490Y020619D02*
X012021Y020619D01*
X012021Y020541D02*
X003507Y020541D01*
X003588Y020305D02*
X007280Y020305D01*
X007260Y020227D02*
X003555Y020227D01*
X003469Y020148D02*
X007265Y020148D01*
X005720Y018578D02*
X012021Y018578D01*
X012021Y018500D02*
X005772Y018500D01*
X005790Y018456D02*
X005753Y018544D01*
X005686Y018612D01*
X005598Y018649D01*
X005502Y018649D01*
X005414Y018612D01*
X005347Y018544D01*
X005310Y018456D01*
X005310Y018361D01*
X005347Y018273D01*
X005414Y018205D01*
X005502Y018169D01*
X005598Y018169D01*
X005686Y018205D01*
X005753Y018273D01*
X005790Y018361D01*
X005790Y018456D01*
X005790Y018421D02*
X012021Y018421D01*
X012021Y018343D02*
X005782Y018343D01*
X005745Y018264D02*
X012021Y018264D01*
X012021Y018186D02*
X005639Y018186D01*
X005461Y018186D02*
X000490Y018186D01*
X000490Y018264D02*
X005355Y018264D01*
X005318Y018343D02*
X000490Y018343D01*
X000490Y018421D02*
X005310Y018421D01*
X005328Y018500D02*
X000490Y018500D01*
X000490Y018578D02*
X005380Y018578D01*
X004687Y019206D02*
X011175Y019206D01*
X011177Y019203D02*
X011244Y019135D01*
X011280Y019120D01*
X011280Y019041D01*
X011317Y018953D01*
X011384Y018885D01*
X011472Y018849D01*
X011568Y018849D01*
X011656Y018885D01*
X011723Y018953D01*
X011760Y019041D01*
X011760Y019120D01*
X011796Y019135D01*
X011863Y019203D01*
X011900Y019291D01*
X011900Y019386D01*
X011863Y019474D01*
X011796Y019542D01*
X011708Y019579D01*
X011612Y019579D01*
X011524Y019542D01*
X011520Y019538D01*
X011516Y019542D01*
X011428Y019579D01*
X011332Y019579D01*
X011244Y019542D01*
X011177Y019474D01*
X011140Y019386D01*
X011140Y019291D01*
X011177Y019203D01*
X011143Y019285D02*
X004758Y019285D01*
X004753Y019273D02*
X004790Y019361D01*
X004790Y019456D01*
X004753Y019544D01*
X004686Y019612D01*
X004598Y019649D01*
X004502Y019649D01*
X004414Y019612D01*
X004347Y019544D01*
X004325Y019492D01*
X004303Y019544D01*
X004236Y019612D01*
X004148Y019649D01*
X004052Y019649D01*
X003964Y019612D01*
X003897Y019544D01*
X003860Y019456D01*
X003860Y019361D01*
X003897Y019273D01*
X003964Y019205D01*
X004052Y019169D01*
X004148Y019169D01*
X004236Y019205D01*
X004303Y019273D01*
X004325Y019325D01*
X004347Y019273D01*
X004414Y019205D01*
X004502Y019169D01*
X004598Y019169D01*
X004686Y019205D01*
X004753Y019273D01*
X004790Y019363D02*
X011140Y019363D01*
X011163Y019442D02*
X004790Y019442D01*
X004764Y019520D02*
X011222Y019520D01*
X011262Y019128D02*
X000490Y019128D01*
X000490Y019206D02*
X003963Y019206D01*
X003892Y019285D02*
X000490Y019285D01*
X000490Y019363D02*
X003860Y019363D01*
X003860Y019442D02*
X000490Y019442D01*
X000490Y019520D02*
X003886Y019520D01*
X003820Y019599D02*
X003951Y019599D01*
X003905Y019677D02*
X012021Y019677D01*
X012021Y019599D02*
X004699Y019599D01*
X004401Y019599D02*
X004249Y019599D01*
X004314Y019520D02*
X004336Y019520D01*
X004342Y019285D02*
X004308Y019285D01*
X004237Y019206D02*
X004413Y019206D01*
X003938Y019756D02*
X012021Y019756D01*
X012021Y019834D02*
X003940Y019834D01*
X003580Y019599D02*
X000490Y019599D01*
X000490Y019677D02*
X003495Y019677D01*
X003462Y019756D02*
X000490Y019756D01*
X000490Y019834D02*
X003460Y019834D01*
X003483Y019913D02*
X000490Y019913D01*
X000490Y019991D02*
X003543Y019991D01*
X001664Y020462D02*
X000490Y020462D01*
X000490Y020384D02*
X001592Y020384D01*
X001560Y020305D02*
X000490Y020305D01*
X000490Y020227D02*
X001560Y020227D01*
X001586Y020148D02*
X000490Y020148D01*
X000490Y020070D02*
X001650Y020070D01*
X000490Y020698D02*
X012021Y020698D01*
X012021Y020776D02*
X000490Y020776D01*
X000490Y020855D02*
X012021Y020855D01*
X012021Y020933D02*
X000490Y020933D01*
X000490Y021797D02*
X012021Y021797D01*
X012021Y021875D02*
X000490Y021875D01*
X000490Y021954D02*
X012021Y021954D01*
X012021Y022032D02*
X000490Y022032D01*
X000490Y022111D02*
X012021Y022111D01*
X012021Y022189D02*
X000490Y022189D01*
X000490Y022268D02*
X012021Y022268D01*
X012021Y022346D02*
X000490Y022346D01*
X000490Y022425D02*
X012021Y022425D01*
X012021Y022503D02*
X000490Y022503D01*
X000490Y022739D02*
X000831Y022739D01*
X000778Y022817D02*
X000490Y022817D01*
X000490Y022896D02*
X000760Y022896D01*
X000767Y022974D02*
X000490Y022974D01*
X000490Y023053D02*
X000805Y023053D01*
X000910Y023131D02*
X000490Y023131D01*
X000490Y024937D02*
X001233Y024937D01*
X001179Y025015D02*
X000490Y025015D01*
X000490Y025094D02*
X001160Y025094D01*
X001167Y025172D02*
X000490Y025172D01*
X000490Y025251D02*
X001203Y025251D01*
X001305Y025329D02*
X000490Y025329D01*
X000490Y019049D02*
X011280Y019049D01*
X011309Y018971D02*
X000490Y018971D01*
X000490Y018892D02*
X011377Y018892D01*
X011663Y018892D02*
X012021Y018892D01*
X012021Y018814D02*
X000490Y018814D01*
X000490Y018735D02*
X012021Y018735D01*
X012021Y018657D02*
X000490Y018657D01*
X000490Y018107D02*
X012021Y018107D01*
X012021Y018029D02*
X000490Y018029D01*
X000490Y017950D02*
X012021Y017950D01*
X012021Y017872D02*
X004326Y017872D01*
X004353Y017844D02*
X004286Y017912D01*
X004198Y017949D01*
X004102Y017949D01*
X004014Y017912D01*
X003947Y017844D01*
X003910Y017756D01*
X003910Y017661D01*
X003947Y017573D01*
X004014Y017505D01*
X004102Y017469D01*
X004198Y017469D01*
X004286Y017505D01*
X004353Y017573D01*
X004390Y017661D01*
X004390Y017756D01*
X004353Y017844D01*
X004375Y017793D02*
X012021Y017793D01*
X012021Y017715D02*
X004390Y017715D01*
X004380Y017636D02*
X012021Y017636D01*
X012021Y017558D02*
X004338Y017558D01*
X004223Y017479D02*
X012021Y017479D01*
X012021Y017401D02*
X000490Y017401D01*
X000490Y017479D02*
X004077Y017479D01*
X003962Y017558D02*
X000490Y017558D01*
X000490Y017636D02*
X003920Y017636D01*
X003910Y017715D02*
X000490Y017715D01*
X000490Y017793D02*
X003925Y017793D01*
X003974Y017872D02*
X000490Y017872D01*
X000490Y017322D02*
X012021Y017322D01*
X012021Y017244D02*
X000490Y017244D01*
X000490Y017165D02*
X012021Y017165D01*
X012021Y017087D02*
X000490Y017087D01*
X000490Y017008D02*
X012021Y017008D01*
X012021Y016930D02*
X000490Y016930D01*
X000490Y016851D02*
X012021Y016851D01*
X012021Y016773D02*
X000490Y016773D01*
X000490Y016694D02*
X012021Y016694D01*
X012021Y016616D02*
X000490Y016616D01*
X000490Y016537D02*
X012021Y016537D01*
X012021Y016459D02*
X000490Y016459D01*
X000490Y016380D02*
X012021Y016380D01*
X012021Y016302D02*
X000490Y016302D01*
X000490Y016223D02*
X012021Y016223D01*
X012021Y016145D02*
X000490Y016145D01*
X000490Y016066D02*
X012021Y016066D01*
X012021Y015988D02*
X000490Y015988D01*
X000490Y015909D02*
X012021Y015909D01*
X012021Y015831D02*
X000490Y015831D01*
X000490Y015752D02*
X012021Y015752D01*
X012021Y015674D02*
X000490Y015674D01*
X000490Y015595D02*
X012021Y015595D01*
X012021Y015517D02*
X000490Y015517D01*
X000490Y015438D02*
X012021Y015438D01*
X012021Y015360D02*
X000490Y015360D01*
X000490Y015281D02*
X012021Y015281D01*
X012021Y015203D02*
X000490Y015203D01*
X000490Y015124D02*
X012021Y015124D01*
X012021Y015046D02*
X000490Y015046D01*
X000490Y014967D02*
X012021Y014967D01*
X012021Y014889D02*
X000490Y014889D01*
X000490Y014810D02*
X012021Y014810D01*
X012021Y014732D02*
X000490Y014732D01*
X000490Y014653D02*
X012021Y014653D01*
X012021Y014575D02*
X000490Y014575D01*
X000490Y014496D02*
X012021Y014496D01*
X012021Y014418D02*
X000490Y014418D01*
X000490Y014339D02*
X012021Y014339D01*
X012021Y014261D02*
X000490Y014261D01*
X000490Y014182D02*
X012021Y014182D01*
X012021Y014104D02*
X000490Y014104D01*
X000490Y014025D02*
X012021Y014025D01*
X012021Y013947D02*
X000490Y013947D01*
X000490Y013868D02*
X012021Y013868D01*
X012021Y013790D02*
X000490Y013790D01*
X000490Y013711D02*
X012021Y013711D01*
X012021Y013633D02*
X000490Y013633D01*
X000490Y013554D02*
X006406Y013554D01*
X006414Y013562D02*
X006347Y013494D01*
X006310Y013406D01*
X006310Y013311D01*
X006347Y013223D01*
X006414Y013155D01*
X006502Y013119D01*
X006598Y013119D01*
X006686Y013155D01*
X006753Y013223D01*
X006790Y013311D01*
X006790Y013406D01*
X006753Y013494D01*
X006686Y013562D01*
X006598Y013599D01*
X006502Y013599D01*
X006414Y013562D01*
X006339Y013476D02*
X000490Y013476D01*
X000490Y013397D02*
X006310Y013397D01*
X006310Y013319D02*
X000490Y013319D01*
X000490Y013240D02*
X006339Y013240D01*
X006408Y013162D02*
X000490Y013162D01*
X000490Y013083D02*
X003615Y013083D01*
X003652Y013099D02*
X003564Y013062D01*
X003497Y012994D01*
X003460Y012906D01*
X003460Y012811D01*
X003497Y012723D01*
X003564Y012655D01*
X003652Y012619D01*
X003748Y012619D01*
X003836Y012655D01*
X003903Y012723D01*
X003940Y012811D01*
X003940Y012906D01*
X003903Y012994D01*
X003836Y013062D01*
X003748Y013099D01*
X003652Y013099D01*
X003785Y013083D02*
X010220Y013083D01*
X010203Y013043D02*
X010203Y012885D01*
X010264Y012739D01*
X010375Y012628D01*
X010521Y012567D01*
X010679Y012567D01*
X010825Y012628D01*
X010936Y012739D01*
X010997Y012885D01*
X010997Y013043D01*
X010936Y013189D01*
X010825Y013300D01*
X010679Y013361D01*
X010521Y013361D01*
X010375Y013300D01*
X010264Y013189D01*
X010203Y013043D01*
X010203Y013005D02*
X003893Y013005D01*
X003932Y012926D02*
X010203Y012926D01*
X010219Y012848D02*
X003940Y012848D01*
X003923Y012769D02*
X010251Y012769D01*
X010312Y012691D02*
X005877Y012691D01*
X005866Y012695D02*
X005794Y012709D01*
X005794Y012371D01*
X005717Y012371D01*
X005717Y012709D01*
X005645Y012695D01*
X005577Y012667D01*
X005515Y012625D01*
X005462Y012573D01*
X005421Y012511D01*
X005393Y012442D01*
X005378Y012371D01*
X005717Y012371D01*
X005717Y012293D01*
X005794Y012293D01*
X005794Y011955D01*
X005866Y011969D01*
X005934Y011998D01*
X005996Y012039D01*
X006049Y012091D01*
X006090Y012153D01*
X006118Y012222D01*
X006133Y012293D01*
X005794Y012293D01*
X005794Y012371D01*
X006133Y012371D01*
X006118Y012442D01*
X006090Y012511D01*
X006049Y012573D01*
X005996Y012625D01*
X005934Y012667D01*
X005866Y012695D01*
X005794Y012691D02*
X005717Y012691D01*
X005717Y012612D02*
X005794Y012612D01*
X005794Y012534D02*
X005717Y012534D01*
X005717Y012455D02*
X005794Y012455D01*
X005794Y012377D02*
X005717Y012377D01*
X005717Y012298D02*
X000490Y012298D01*
X000490Y012220D02*
X005394Y012220D01*
X005393Y012222D02*
X005421Y012153D01*
X005462Y012091D01*
X005515Y012039D01*
X005577Y011998D01*
X005645Y011969D01*
X005717Y011955D01*
X005717Y012293D01*
X005378Y012293D01*
X005393Y012222D01*
X005429Y012141D02*
X000490Y012141D01*
X000490Y012063D02*
X005491Y012063D01*
X005609Y011984D02*
X000490Y011984D01*
X000490Y011906D02*
X012021Y011906D01*
X012021Y011984D02*
X006849Y011984D01*
X006827Y011975D02*
X006958Y012029D01*
X007059Y012130D01*
X007113Y012261D01*
X007113Y012403D01*
X007059Y012535D01*
X006958Y012635D01*
X006827Y012690D01*
X006684Y012690D01*
X006553Y012635D01*
X006452Y012535D01*
X006398Y012403D01*
X006398Y012261D01*
X006452Y012130D01*
X006553Y012029D01*
X006684Y011975D01*
X006827Y011975D01*
X006662Y011984D02*
X005902Y011984D01*
X005794Y011984D02*
X005717Y011984D01*
X005717Y012063D02*
X005794Y012063D01*
X005794Y012141D02*
X005717Y012141D01*
X005717Y012220D02*
X005794Y012220D01*
X005794Y012298D02*
X006398Y012298D01*
X006398Y012377D02*
X006132Y012377D01*
X006113Y012455D02*
X006419Y012455D01*
X006452Y012534D02*
X006075Y012534D01*
X006009Y012612D02*
X006530Y012612D01*
X006415Y012220D02*
X006117Y012220D01*
X006082Y012141D02*
X006448Y012141D01*
X006520Y012063D02*
X006020Y012063D01*
X005502Y012612D02*
X000490Y012612D01*
X000490Y012534D02*
X005436Y012534D01*
X005398Y012455D02*
X000490Y012455D01*
X000490Y012377D02*
X005379Y012377D01*
X005634Y012691D02*
X003871Y012691D01*
X003529Y012691D02*
X000490Y012691D01*
X000490Y012769D02*
X003477Y012769D01*
X003460Y012848D02*
X000490Y012848D01*
X000490Y012926D02*
X003468Y012926D01*
X003507Y013005D02*
X000490Y013005D01*
X000490Y011827D02*
X012021Y011827D01*
X012021Y011749D02*
X000490Y011749D01*
X000490Y011670D02*
X012021Y011670D01*
X012021Y011592D02*
X011314Y011592D01*
X011287Y011618D02*
X011166Y011669D01*
X011034Y011669D01*
X010913Y011618D01*
X010850Y011555D01*
X010787Y011618D01*
X010666Y011669D01*
X010534Y011669D01*
X010413Y011618D01*
X010320Y011525D01*
X010270Y011404D01*
X010270Y011273D01*
X010320Y011152D01*
X010383Y011089D01*
X010320Y011025D01*
X010270Y010904D01*
X010270Y010773D01*
X010320Y010652D01*
X010383Y010589D01*
X010320Y010525D01*
X010270Y010404D01*
X010270Y010273D01*
X010320Y010152D01*
X010383Y010089D01*
X010320Y010025D01*
X010270Y009904D01*
X010270Y009773D01*
X010320Y009652D01*
X010413Y009559D01*
X010534Y009509D01*
X010666Y009509D01*
X010787Y009559D01*
X010850Y009622D01*
X010913Y009559D01*
X011034Y009509D01*
X011166Y009509D01*
X011287Y009559D01*
X011380Y009652D01*
X011430Y009773D01*
X011430Y009904D01*
X011380Y010025D01*
X011317Y010089D01*
X011380Y010152D01*
X011430Y010273D01*
X011430Y010404D01*
X011380Y010525D01*
X011331Y010574D01*
X011372Y010615D01*
X011410Y010673D01*
X011437Y010736D01*
X011450Y010804D01*
X011450Y010814D01*
X011125Y010814D01*
X011125Y010864D01*
X011450Y010864D01*
X011450Y010873D01*
X011437Y010941D01*
X011410Y011004D01*
X011372Y011062D01*
X011331Y011103D01*
X011380Y011152D01*
X011430Y011273D01*
X011430Y011404D01*
X011380Y011525D01*
X011287Y011618D01*
X011385Y011513D02*
X012021Y011513D01*
X012021Y011435D02*
X011417Y011435D01*
X011430Y011356D02*
X012021Y011356D01*
X012021Y011278D02*
X011430Y011278D01*
X011399Y011199D02*
X012021Y011199D01*
X012021Y011121D02*
X011349Y011121D01*
X011385Y011042D02*
X012021Y011042D01*
X012021Y010964D02*
X011427Y010964D01*
X011448Y010885D02*
X012021Y010885D01*
X012021Y010807D02*
X011450Y010807D01*
X011433Y010728D02*
X012021Y010728D01*
X012021Y010650D02*
X011395Y010650D01*
X011334Y010571D02*
X012021Y010571D01*
X012021Y010493D02*
X011393Y010493D01*
X011426Y010414D02*
X012021Y010414D01*
X012021Y010336D02*
X011430Y010336D01*
X011423Y010257D02*
X012021Y010257D01*
X012021Y010179D02*
X011391Y010179D01*
X011328Y010100D02*
X012021Y010100D01*
X012021Y010022D02*
X011381Y010022D01*
X011414Y009943D02*
X012021Y009943D01*
X012021Y009865D02*
X011430Y009865D01*
X011430Y009786D02*
X012021Y009786D01*
X012021Y009708D02*
X011403Y009708D01*
X011357Y009629D02*
X012021Y009629D01*
X012021Y009551D02*
X011267Y009551D01*
X010933Y009551D02*
X010767Y009551D01*
X010433Y009551D02*
X000490Y009551D01*
X000490Y009629D02*
X010343Y009629D01*
X010297Y009708D02*
X000490Y009708D01*
X000490Y009786D02*
X010270Y009786D01*
X010270Y009865D02*
X000490Y009865D01*
X000490Y009943D02*
X010286Y009943D01*
X010319Y010022D02*
X000490Y010022D01*
X000490Y010100D02*
X003829Y010100D01*
X003844Y010085D02*
X003932Y010049D01*
X004028Y010049D01*
X004116Y010085D01*
X004183Y010153D01*
X004220Y010241D01*
X004220Y010336D01*
X004183Y010424D01*
X004116Y010492D01*
X004028Y010529D01*
X003932Y010529D01*
X003844Y010492D01*
X003777Y010424D01*
X003740Y010336D01*
X003740Y010241D01*
X003777Y010153D01*
X003844Y010085D01*
X003766Y010179D02*
X000490Y010179D01*
X000490Y010257D02*
X003740Y010257D01*
X003740Y010336D02*
X000490Y010336D01*
X000490Y010414D02*
X003772Y010414D01*
X003845Y010493D02*
X000490Y010493D01*
X000490Y010571D02*
X010366Y010571D01*
X010322Y010650D02*
X000490Y010650D01*
X000490Y010728D02*
X004641Y010728D01*
X004664Y010705D02*
X004752Y010669D01*
X004848Y010669D01*
X004936Y010705D01*
X005003Y010773D01*
X005040Y010861D01*
X005040Y010956D01*
X005003Y011044D01*
X004936Y011112D01*
X004848Y011149D01*
X004752Y011149D01*
X004664Y011112D01*
X004597Y011044D01*
X004560Y010956D01*
X004560Y010861D01*
X004597Y010773D01*
X004664Y010705D01*
X004582Y010807D02*
X000490Y010807D01*
X000490Y010885D02*
X004560Y010885D01*
X004563Y010964D02*
X000490Y010964D01*
X000490Y011042D02*
X004596Y011042D01*
X004685Y011121D02*
X003851Y011121D01*
X003836Y011105D02*
X003903Y011173D01*
X003940Y011261D01*
X003940Y011356D01*
X010270Y011356D01*
X010270Y011278D02*
X003940Y011278D01*
X003940Y011356D02*
X003903Y011444D01*
X003836Y011512D01*
X003748Y011549D01*
X003652Y011549D01*
X003564Y011512D01*
X003497Y011444D01*
X003460Y011356D01*
X000490Y011356D01*
X000490Y011278D02*
X003460Y011278D01*
X003460Y011261D02*
X003497Y011173D01*
X003564Y011105D01*
X003652Y011069D01*
X003748Y011069D01*
X003836Y011105D01*
X003914Y011199D02*
X010301Y011199D01*
X010351Y011121D02*
X008977Y011121D01*
X009003Y011094D02*
X008936Y011162D01*
X008848Y011199D01*
X008752Y011199D01*
X008664Y011162D01*
X008597Y011094D01*
X008560Y011006D01*
X008560Y010911D01*
X008597Y010823D01*
X008664Y010755D01*
X008752Y010719D01*
X008848Y010719D01*
X008936Y010755D01*
X009003Y010823D01*
X009040Y010911D01*
X009040Y011006D01*
X009003Y011094D01*
X009025Y011042D02*
X010337Y011042D01*
X010295Y010964D02*
X009040Y010964D01*
X009029Y010885D02*
X010270Y010885D01*
X010270Y010807D02*
X008987Y010807D01*
X008871Y010728D02*
X010289Y010728D01*
X010307Y010493D02*
X004115Y010493D01*
X004188Y010414D02*
X010274Y010414D01*
X010270Y010336D02*
X004220Y010336D01*
X004220Y010257D02*
X010277Y010257D01*
X010309Y010179D02*
X004194Y010179D01*
X004131Y010100D02*
X010372Y010100D01*
X009936Y009012D02*
X009848Y009049D01*
X009752Y009049D01*
X009664Y009012D01*
X009597Y008944D01*
X009560Y008856D01*
X009560Y008761D01*
X009597Y008673D01*
X009664Y008605D01*
X009752Y008569D01*
X009848Y008569D01*
X009936Y008605D01*
X010003Y008673D01*
X010040Y008761D01*
X010040Y008856D01*
X010003Y008944D01*
X009936Y009012D01*
X009947Y009001D02*
X012021Y009001D01*
X012021Y008923D02*
X010013Y008923D01*
X010040Y008844D02*
X012021Y008844D01*
X012021Y008766D02*
X010040Y008766D01*
X010009Y008687D02*
X012021Y008687D01*
X012021Y008609D02*
X009939Y008609D01*
X009661Y008609D02*
X004889Y008609D01*
X004886Y008605D02*
X004953Y008673D01*
X004990Y008761D01*
X004990Y008856D01*
X004953Y008944D01*
X004886Y009012D01*
X004798Y009049D01*
X004702Y009049D01*
X004614Y009012D01*
X004547Y008944D01*
X004510Y008856D01*
X004510Y008761D01*
X004547Y008673D01*
X004614Y008605D01*
X004702Y008569D01*
X004798Y008569D01*
X004886Y008605D01*
X004959Y008687D02*
X009591Y008687D01*
X009560Y008766D02*
X004990Y008766D01*
X004990Y008844D02*
X005725Y008844D01*
X005697Y008873D02*
X005764Y008805D01*
X005852Y008769D01*
X005948Y008769D01*
X006036Y008805D01*
X006103Y008873D01*
X006140Y008961D01*
X006140Y009056D01*
X006103Y009144D01*
X006036Y009212D01*
X005948Y009249D01*
X005852Y009249D01*
X005764Y009212D01*
X005697Y009144D01*
X005660Y009056D01*
X005660Y008961D01*
X005697Y008873D01*
X005676Y008923D02*
X004963Y008923D01*
X004897Y009001D02*
X005660Y009001D01*
X005670Y009080D02*
X000490Y009080D01*
X000490Y009158D02*
X005710Y009158D01*
X005823Y009237D02*
X000490Y009237D01*
X000490Y009315D02*
X012021Y009315D01*
X012021Y009237D02*
X007027Y009237D01*
X006998Y009249D02*
X006902Y009249D01*
X006814Y009212D01*
X006747Y009144D01*
X006710Y009056D01*
X006710Y008961D01*
X006747Y008873D01*
X006814Y008805D01*
X006902Y008769D01*
X006998Y008769D01*
X007086Y008805D01*
X007153Y008873D01*
X007190Y008961D01*
X007190Y009056D01*
X007153Y009144D01*
X007086Y009212D01*
X006998Y009249D01*
X006873Y009237D02*
X005977Y009237D01*
X006090Y009158D02*
X006760Y009158D01*
X006720Y009080D02*
X006130Y009080D01*
X006140Y009001D02*
X006710Y009001D01*
X006726Y008923D02*
X006124Y008923D01*
X006075Y008844D02*
X006775Y008844D01*
X007125Y008844D02*
X009560Y008844D01*
X009587Y008923D02*
X007174Y008923D01*
X007190Y009001D02*
X009653Y009001D01*
X011161Y008285D02*
X011100Y008138D01*
X011100Y007979D01*
X011161Y007832D01*
X011273Y007719D01*
X011420Y007659D01*
X011580Y007659D01*
X011727Y007719D01*
X011839Y007832D01*
X011900Y007979D01*
X011900Y008138D01*
X011839Y008285D01*
X011727Y008398D01*
X011580Y008459D01*
X011420Y008459D01*
X011273Y008398D01*
X011161Y008285D01*
X011170Y008295D02*
X003974Y008295D01*
X003990Y008256D02*
X003953Y008344D01*
X003886Y008412D01*
X003798Y008449D01*
X003702Y008449D01*
X003614Y008412D01*
X003547Y008344D01*
X003510Y008256D01*
X003510Y008161D01*
X003547Y008073D01*
X003614Y008005D01*
X003702Y007969D01*
X003798Y007969D01*
X003886Y008005D01*
X003953Y008073D01*
X003990Y008161D01*
X003990Y008256D01*
X003990Y008216D02*
X011132Y008216D01*
X011100Y008138D02*
X003980Y008138D01*
X003940Y008059D02*
X011100Y008059D01*
X011100Y007981D02*
X003827Y007981D01*
X003673Y007981D02*
X000490Y007981D01*
X000490Y008059D02*
X003560Y008059D01*
X003520Y008138D02*
X000490Y008138D01*
X000490Y008216D02*
X003510Y008216D01*
X003526Y008295D02*
X000490Y008295D01*
X000490Y008373D02*
X003575Y008373D01*
X003925Y008373D02*
X011249Y008373D01*
X011404Y008452D02*
X000490Y008452D01*
X000490Y008530D02*
X012021Y008530D01*
X012021Y008452D02*
X011596Y008452D01*
X011751Y008373D02*
X012021Y008373D01*
X012021Y008295D02*
X011830Y008295D01*
X011868Y008216D02*
X012021Y008216D01*
X012021Y008138D02*
X011900Y008138D01*
X011900Y008059D02*
X012021Y008059D01*
X012021Y007981D02*
X011900Y007981D01*
X011868Y007902D02*
X012021Y007902D01*
X012021Y007824D02*
X011831Y007824D01*
X011752Y007745D02*
X012021Y007745D01*
X012021Y007667D02*
X011599Y007667D01*
X011401Y007667D02*
X007886Y007667D01*
X007890Y007656D02*
X007853Y007744D01*
X007786Y007812D01*
X007698Y007849D01*
X007602Y007849D01*
X007514Y007812D01*
X007447Y007744D01*
X007410Y007656D01*
X007410Y007561D01*
X007447Y007473D01*
X007514Y007405D01*
X007602Y007369D01*
X007698Y007369D01*
X007786Y007405D01*
X007853Y007473D01*
X007890Y007561D01*
X007890Y007656D01*
X007890Y007588D02*
X012021Y007588D01*
X012021Y007510D02*
X007869Y007510D01*
X007812Y007431D02*
X011354Y007431D01*
X011420Y007459D02*
X011273Y007398D01*
X011161Y007285D01*
X011100Y007138D01*
X011100Y006979D01*
X011161Y006832D01*
X011273Y006719D01*
X011420Y006659D01*
X011580Y006659D01*
X011727Y006719D01*
X011839Y006832D01*
X011900Y006979D01*
X011900Y007138D01*
X011839Y007285D01*
X011727Y007398D01*
X011580Y007459D01*
X011420Y007459D01*
X011228Y007353D02*
X004995Y007353D01*
X005003Y007344D02*
X004936Y007412D01*
X004848Y007449D01*
X004752Y007449D01*
X004664Y007412D01*
X004597Y007344D01*
X004560Y007256D01*
X004560Y007161D01*
X004597Y007073D01*
X004664Y007005D01*
X004752Y006969D01*
X004848Y006969D01*
X004936Y007005D01*
X005003Y007073D01*
X005040Y007161D01*
X005040Y007256D01*
X005003Y007344D01*
X005033Y007274D02*
X011156Y007274D01*
X011124Y007196D02*
X005040Y007196D01*
X005022Y007117D02*
X011100Y007117D01*
X011100Y007039D02*
X004969Y007039D01*
X004936Y006912D02*
X004848Y006949D01*
X004752Y006949D01*
X004664Y006912D01*
X004597Y006844D01*
X004560Y006756D01*
X004560Y006661D01*
X004597Y006573D01*
X004664Y006505D01*
X004752Y006469D01*
X004848Y006469D01*
X004936Y006505D01*
X005003Y006573D01*
X005040Y006661D01*
X005040Y006756D01*
X005003Y006844D01*
X004936Y006912D01*
X004966Y006882D02*
X011140Y006882D01*
X011108Y006960D02*
X000490Y006960D01*
X000490Y006882D02*
X004634Y006882D01*
X004579Y006803D02*
X000490Y006803D01*
X000490Y006725D02*
X004560Y006725D01*
X004566Y006646D02*
X000490Y006646D01*
X000490Y006568D02*
X004602Y006568D01*
X004703Y006489D02*
X000490Y006489D01*
X000490Y006411D02*
X011305Y006411D01*
X011273Y006398D02*
X011161Y006285D01*
X011100Y006138D01*
X011100Y005979D01*
X011161Y005832D01*
X011273Y005719D01*
X011420Y005659D01*
X011580Y005659D01*
X011727Y005719D01*
X011839Y005832D01*
X011900Y005979D01*
X011900Y006138D01*
X011839Y006285D01*
X011727Y006398D01*
X011580Y006459D01*
X011420Y006459D01*
X011273Y006398D01*
X011208Y006332D02*
X002038Y006332D01*
X001998Y006349D02*
X001902Y006349D01*
X001814Y006312D01*
X001747Y006244D01*
X001710Y006156D01*
X001710Y006061D01*
X001747Y005973D01*
X001814Y005905D01*
X001902Y005869D01*
X001998Y005869D01*
X002086Y005905D01*
X002153Y005973D01*
X002190Y006061D01*
X002190Y006156D01*
X002153Y006244D01*
X002086Y006312D01*
X001998Y006349D01*
X001862Y006332D02*
X000490Y006332D01*
X000490Y006254D02*
X001756Y006254D01*
X001718Y006175D02*
X000490Y006175D01*
X000490Y006097D02*
X001710Y006097D01*
X001728Y006018D02*
X000490Y006018D01*
X000490Y005940D02*
X001780Y005940D01*
X002120Y005940D02*
X011116Y005940D01*
X011100Y006018D02*
X002172Y006018D01*
X002190Y006097D02*
X011100Y006097D01*
X011115Y006175D02*
X002182Y006175D01*
X002144Y006254D02*
X011148Y006254D01*
X011149Y005861D02*
X000490Y005861D01*
X000490Y005783D02*
X011210Y005783D01*
X011311Y005704D02*
X000490Y005704D01*
X000490Y005626D02*
X012021Y005626D01*
X012021Y005704D02*
X011689Y005704D01*
X011790Y005783D02*
X012021Y005783D01*
X012021Y005861D02*
X011851Y005861D01*
X011884Y005940D02*
X012021Y005940D01*
X012021Y006018D02*
X011900Y006018D01*
X011900Y006097D02*
X012021Y006097D01*
X012021Y006175D02*
X011885Y006175D01*
X011852Y006254D02*
X012021Y006254D01*
X012021Y006332D02*
X011792Y006332D01*
X011695Y006411D02*
X012021Y006411D01*
X012021Y006489D02*
X004897Y006489D01*
X004998Y006568D02*
X012021Y006568D01*
X012021Y006646D02*
X005034Y006646D01*
X005040Y006725D02*
X011268Y006725D01*
X011190Y006803D02*
X005021Y006803D01*
X004631Y007039D02*
X000490Y007039D01*
X000490Y007117D02*
X004578Y007117D01*
X004560Y007196D02*
X000490Y007196D01*
X000490Y007274D02*
X003739Y007274D01*
X003752Y007269D02*
X003848Y007269D01*
X003936Y007305D01*
X004003Y007373D01*
X004040Y007461D01*
X004040Y007556D01*
X004003Y007644D01*
X003936Y007712D01*
X003848Y007749D01*
X003752Y007749D01*
X003664Y007712D01*
X003597Y007644D01*
X003560Y007556D01*
X003560Y007461D01*
X003597Y007373D01*
X003664Y007305D01*
X003752Y007269D01*
X003861Y007274D02*
X004567Y007274D01*
X004605Y007353D02*
X003983Y007353D01*
X004028Y007431D02*
X004710Y007431D01*
X004890Y007431D02*
X007488Y007431D01*
X007431Y007510D02*
X004040Y007510D01*
X004027Y007588D02*
X007410Y007588D01*
X007414Y007667D02*
X003981Y007667D01*
X003856Y007745D02*
X007447Y007745D01*
X007542Y007824D02*
X000490Y007824D01*
X000490Y007902D02*
X011132Y007902D01*
X011169Y007824D02*
X007758Y007824D01*
X007853Y007745D02*
X011248Y007745D01*
X011646Y007431D02*
X012021Y007431D01*
X012021Y007353D02*
X011772Y007353D01*
X011844Y007274D02*
X012021Y007274D01*
X012021Y007196D02*
X011876Y007196D01*
X011900Y007117D02*
X012021Y007117D01*
X012021Y007039D02*
X011900Y007039D01*
X011892Y006960D02*
X012021Y006960D01*
X012021Y006882D02*
X011860Y006882D01*
X011810Y006803D02*
X012021Y006803D01*
X012021Y006725D02*
X011732Y006725D01*
X012021Y005547D02*
X000490Y005547D01*
X000490Y005469D02*
X011404Y005469D01*
X011402Y005468D02*
X011339Y005448D01*
X011280Y005418D01*
X011226Y005379D01*
X011180Y005332D01*
X011141Y005279D01*
X011111Y005220D01*
X011090Y005157D01*
X011081Y005099D01*
X011460Y005099D01*
X011460Y005477D01*
X011402Y005468D01*
X011460Y005469D02*
X011540Y005469D01*
X011540Y005477D02*
X011598Y005468D01*
X011661Y005448D01*
X011720Y005418D01*
X011774Y005379D01*
X011820Y005332D01*
X011859Y005279D01*
X011889Y005220D01*
X011910Y005157D01*
X011919Y005099D01*
X011540Y005099D01*
X011460Y005099D01*
X011460Y005019D01*
X011081Y005019D01*
X011090Y004960D01*
X011111Y004897D01*
X011141Y004838D01*
X011180Y004785D01*
X011226Y004738D01*
X011280Y004699D01*
X011339Y004669D01*
X011402Y004649D01*
X011460Y004640D01*
X011460Y005018D01*
X011540Y005018D01*
X011540Y004640D01*
X011598Y004649D01*
X011661Y004669D01*
X011720Y004699D01*
X011774Y004738D01*
X011820Y004785D01*
X011859Y004838D01*
X011889Y004897D01*
X011910Y004960D01*
X011919Y005019D01*
X011540Y005019D01*
X011540Y005099D01*
X011540Y005477D01*
X011596Y005469D02*
X012021Y005469D01*
X012021Y005390D02*
X011758Y005390D01*
X011835Y005312D02*
X012021Y005312D01*
X012021Y005233D02*
X011882Y005233D01*
X011910Y005155D02*
X012021Y005155D01*
X012021Y005076D02*
X011540Y005076D01*
X011540Y004998D02*
X011460Y004998D01*
X011460Y005076D02*
X000490Y005076D01*
X000490Y004998D02*
X011084Y004998D01*
X011104Y004919D02*
X000490Y004919D01*
X000490Y004841D02*
X005893Y004841D01*
X005914Y004862D02*
X005847Y004794D01*
X005810Y004706D01*
X005810Y004611D01*
X005847Y004523D01*
X005914Y004455D01*
X006002Y004419D01*
X006098Y004419D01*
X006186Y004455D01*
X006253Y004523D01*
X006290Y004611D01*
X006290Y004706D01*
X006253Y004794D01*
X006186Y004862D01*
X006098Y004899D01*
X006002Y004899D01*
X005914Y004862D01*
X005833Y004762D02*
X000490Y004762D01*
X000490Y004684D02*
X005810Y004684D01*
X005812Y004605D02*
X000490Y004605D01*
X000490Y004527D02*
X005845Y004527D01*
X005931Y004448D02*
X000490Y004448D01*
X000490Y004370D02*
X012021Y004370D01*
X012021Y004448D02*
X007769Y004448D01*
X007786Y004455D02*
X007853Y004523D01*
X007890Y004611D01*
X007890Y004706D01*
X007853Y004794D01*
X007786Y004862D01*
X007698Y004899D01*
X007602Y004899D01*
X007514Y004862D01*
X007447Y004794D01*
X007410Y004706D01*
X007410Y004611D01*
X007447Y004523D01*
X007514Y004455D01*
X007602Y004419D01*
X007698Y004419D01*
X007786Y004455D01*
X007855Y004527D02*
X012021Y004527D01*
X012021Y004605D02*
X007888Y004605D01*
X007890Y004684D02*
X011311Y004684D01*
X011203Y004762D02*
X007867Y004762D01*
X007807Y004841D02*
X011140Y004841D01*
X011090Y005155D02*
X000490Y005155D01*
X000490Y005233D02*
X011118Y005233D01*
X011165Y005312D02*
X000490Y005312D01*
X000490Y005390D02*
X011242Y005390D01*
X011460Y005390D02*
X011540Y005390D01*
X011540Y005312D02*
X011460Y005312D01*
X011460Y005233D02*
X011540Y005233D01*
X011540Y005155D02*
X011460Y005155D01*
X011460Y004919D02*
X011540Y004919D01*
X011540Y004841D02*
X011460Y004841D01*
X011460Y004762D02*
X011540Y004762D01*
X011540Y004684D02*
X011460Y004684D01*
X011689Y004684D02*
X012021Y004684D01*
X012021Y004762D02*
X011797Y004762D01*
X011860Y004841D02*
X012021Y004841D01*
X012021Y004919D02*
X011896Y004919D01*
X011916Y004998D02*
X012021Y004998D01*
X012021Y004291D02*
X000490Y004291D01*
X000490Y004213D02*
X012021Y004213D01*
X012021Y004134D02*
X000490Y004134D01*
X000490Y004056D02*
X012021Y004056D01*
X012021Y003977D02*
X000490Y003977D01*
X000490Y003899D02*
X002801Y003899D01*
X002814Y003912D02*
X002747Y003844D01*
X002710Y003756D01*
X002710Y003661D01*
X002747Y003573D01*
X002814Y003505D01*
X002902Y003469D01*
X002998Y003469D01*
X003086Y003505D01*
X003153Y003573D01*
X003190Y003661D01*
X003190Y003756D01*
X003153Y003844D01*
X003086Y003912D01*
X002998Y003949D01*
X002902Y003949D01*
X002814Y003912D01*
X002736Y003820D02*
X000490Y003820D01*
X000490Y003742D02*
X002710Y003742D01*
X002710Y003663D02*
X000490Y003663D01*
X000490Y003585D02*
X002742Y003585D01*
X002813Y003506D02*
X000490Y003506D01*
X000490Y003428D02*
X006102Y003428D01*
X006064Y003412D02*
X005997Y003344D01*
X005960Y003256D01*
X005960Y003161D01*
X005997Y003073D01*
X006064Y003005D01*
X006152Y002969D01*
X006248Y002969D01*
X006336Y003005D01*
X006403Y003073D01*
X006440Y003161D01*
X006440Y003256D01*
X006403Y003344D01*
X006336Y003412D01*
X006248Y003449D01*
X006152Y003449D01*
X006064Y003412D01*
X006001Y003349D02*
X000490Y003349D01*
X000490Y003271D02*
X005966Y003271D01*
X005960Y003192D02*
X000490Y003192D01*
X000490Y003114D02*
X005980Y003114D01*
X006034Y003035D02*
X000490Y003035D01*
X000490Y002957D02*
X007863Y002957D01*
X007864Y002955D02*
X007952Y002919D01*
X008048Y002919D01*
X008136Y002955D01*
X008203Y003023D01*
X008240Y003111D01*
X008240Y003206D01*
X008203Y003294D01*
X008136Y003362D01*
X008048Y003399D01*
X007952Y003399D01*
X007864Y003362D01*
X007797Y003294D01*
X007760Y003206D01*
X007760Y003111D01*
X007797Y003023D01*
X007864Y002955D01*
X007791Y003035D02*
X006366Y003035D01*
X006420Y003114D02*
X007760Y003114D01*
X007760Y003192D02*
X006440Y003192D01*
X006434Y003271D02*
X007787Y003271D01*
X007851Y003349D02*
X006399Y003349D01*
X006298Y003428D02*
X012021Y003428D01*
X012021Y003506D02*
X003087Y003506D01*
X003158Y003585D02*
X012021Y003585D01*
X012021Y003663D02*
X003190Y003663D01*
X003190Y003742D02*
X012021Y003742D01*
X012021Y003820D02*
X003164Y003820D01*
X003099Y003899D02*
X012021Y003899D01*
X012021Y003349D02*
X008149Y003349D01*
X008213Y003271D02*
X012021Y003271D01*
X012021Y003192D02*
X008240Y003192D01*
X008240Y003114D02*
X012021Y003114D01*
X012021Y003035D02*
X008209Y003035D01*
X008137Y002957D02*
X012021Y002957D01*
X012021Y002878D02*
X000490Y002878D01*
X000490Y002800D02*
X012021Y002800D01*
X012021Y002721D02*
X000490Y002721D01*
X000490Y002643D02*
X012021Y002643D01*
X012021Y002564D02*
X000490Y002564D01*
X000490Y002486D02*
X005468Y002486D01*
X005468Y002407D02*
X000490Y002407D01*
X000490Y002329D02*
X005468Y002329D01*
X005468Y002250D02*
X000490Y002250D01*
X000490Y002172D02*
X005468Y002172D01*
X005468Y002093D02*
X000490Y002093D01*
X000490Y002015D02*
X005468Y002015D01*
X005468Y001936D02*
X000490Y001936D01*
X000490Y001858D02*
X005468Y001858D01*
X005468Y001779D02*
X000490Y001779D01*
X000490Y001701D02*
X005468Y001701D01*
X005468Y001622D02*
X003826Y001622D01*
X003853Y001594D02*
X003786Y001662D01*
X003698Y001699D01*
X003602Y001699D01*
X003514Y001662D01*
X003447Y001594D01*
X003410Y001506D01*
X003410Y001411D01*
X003447Y001323D01*
X003514Y001255D01*
X003602Y001219D01*
X003698Y001219D01*
X003786Y001255D01*
X003853Y001323D01*
X003890Y001411D01*
X003890Y001506D01*
X003853Y001594D01*
X003875Y001544D02*
X005468Y001544D01*
X005468Y001465D02*
X003890Y001465D01*
X003880Y001387D02*
X005468Y001387D01*
X005468Y001308D02*
X003839Y001308D01*
X003724Y001230D02*
X005468Y001230D01*
X005468Y001151D02*
X000490Y001151D01*
X000490Y001073D02*
X005468Y001073D01*
X005468Y000994D02*
X000490Y000994D01*
X000490Y000916D02*
X005468Y000916D01*
X003576Y001230D02*
X000490Y001230D01*
X000490Y001308D02*
X003461Y001308D01*
X003420Y001387D02*
X000490Y001387D01*
X000490Y001465D02*
X003410Y001465D01*
X003425Y001544D02*
X000490Y001544D01*
X000490Y001622D02*
X003474Y001622D01*
X006169Y004448D02*
X006481Y004448D01*
X006464Y004455D02*
X006552Y004419D01*
X006648Y004419D01*
X006736Y004455D01*
X006803Y004523D01*
X006840Y004611D01*
X006840Y004706D01*
X006803Y004794D01*
X006736Y004862D01*
X006648Y004899D01*
X006552Y004899D01*
X006464Y004862D01*
X006397Y004794D01*
X006360Y004706D01*
X006360Y004611D01*
X006397Y004523D01*
X006464Y004455D01*
X006395Y004527D02*
X006255Y004527D01*
X006288Y004605D02*
X006362Y004605D01*
X006360Y004684D02*
X006290Y004684D01*
X006267Y004762D02*
X006383Y004762D01*
X006443Y004841D02*
X006207Y004841D01*
X006757Y004841D02*
X006993Y004841D01*
X007014Y004862D02*
X006947Y004794D01*
X006910Y004706D01*
X006910Y004611D01*
X006947Y004523D01*
X007014Y004455D01*
X007102Y004419D01*
X007198Y004419D01*
X007286Y004455D01*
X007353Y004523D01*
X007390Y004611D01*
X007390Y004706D01*
X007353Y004794D01*
X007286Y004862D01*
X007198Y004899D01*
X007102Y004899D01*
X007014Y004862D01*
X006933Y004762D02*
X006817Y004762D01*
X006840Y004684D02*
X006910Y004684D01*
X006912Y004605D02*
X006838Y004605D01*
X006805Y004527D02*
X006945Y004527D01*
X007031Y004448D02*
X006719Y004448D01*
X007269Y004448D02*
X007531Y004448D01*
X007445Y004527D02*
X007355Y004527D01*
X007388Y004605D02*
X007412Y004605D01*
X007410Y004684D02*
X007390Y004684D01*
X007367Y004762D02*
X007433Y004762D01*
X007493Y004841D02*
X007307Y004841D01*
X004611Y008609D02*
X000490Y008609D01*
X000490Y008687D02*
X004541Y008687D01*
X004510Y008766D02*
X000490Y008766D01*
X000490Y008844D02*
X004510Y008844D01*
X004537Y008923D02*
X000490Y008923D01*
X000490Y009001D02*
X004603Y009001D01*
X003744Y007745D02*
X000490Y007745D01*
X000490Y007667D02*
X003619Y007667D01*
X003573Y007588D02*
X000490Y007588D01*
X000490Y007510D02*
X003560Y007510D01*
X003572Y007431D02*
X000490Y007431D01*
X000490Y007353D02*
X003617Y007353D01*
X005214Y010705D02*
X005302Y010669D01*
X005398Y010669D01*
X005486Y010705D01*
X005553Y010773D01*
X005590Y010861D01*
X005590Y010956D01*
X005553Y011044D01*
X005486Y011112D01*
X005398Y011149D01*
X005302Y011149D01*
X005214Y011112D01*
X005147Y011044D01*
X005110Y010956D01*
X005110Y010861D01*
X005147Y010773D01*
X005214Y010705D01*
X005191Y010728D02*
X004959Y010728D01*
X005018Y010807D02*
X005132Y010807D01*
X005110Y010885D02*
X005040Y010885D01*
X005037Y010964D02*
X005113Y010964D01*
X005146Y011042D02*
X005004Y011042D01*
X004915Y011121D02*
X005235Y011121D01*
X005465Y011121D02*
X008623Y011121D01*
X008575Y011042D02*
X005554Y011042D01*
X005587Y010964D02*
X008560Y010964D01*
X008571Y010885D02*
X005590Y010885D01*
X005568Y010807D02*
X008613Y010807D01*
X008729Y010728D02*
X005509Y010728D01*
X006991Y012063D02*
X012021Y012063D01*
X012021Y012141D02*
X007063Y012141D01*
X007096Y012220D02*
X012021Y012220D01*
X012021Y012298D02*
X007113Y012298D01*
X007113Y012377D02*
X012021Y012377D01*
X012021Y012455D02*
X007092Y012455D01*
X007059Y012534D02*
X012021Y012534D01*
X012021Y012612D02*
X011787Y012612D01*
X011825Y012628D02*
X011679Y012567D01*
X011521Y012567D01*
X011375Y012628D01*
X011264Y012739D01*
X011203Y012885D01*
X011203Y013043D01*
X011264Y013189D01*
X011375Y013300D01*
X011521Y013361D01*
X011679Y013361D01*
X011825Y013300D01*
X011936Y013189D01*
X011997Y013043D01*
X011997Y012885D01*
X011936Y012739D01*
X011825Y012628D01*
X011888Y012691D02*
X012021Y012691D01*
X012021Y012769D02*
X011949Y012769D01*
X011981Y012848D02*
X012021Y012848D01*
X012021Y012926D02*
X011997Y012926D01*
X011997Y013005D02*
X012021Y013005D01*
X012021Y013083D02*
X011980Y013083D01*
X011948Y013162D02*
X012021Y013162D01*
X012021Y013240D02*
X011885Y013240D01*
X011781Y013319D02*
X012021Y013319D01*
X012021Y013397D02*
X006790Y013397D01*
X006790Y013319D02*
X010419Y013319D01*
X010315Y013240D02*
X006761Y013240D01*
X006692Y013162D02*
X010252Y013162D01*
X010781Y013319D02*
X011419Y013319D01*
X011315Y013240D02*
X010885Y013240D01*
X010948Y013162D02*
X011252Y013162D01*
X011220Y013083D02*
X010980Y013083D01*
X010997Y013005D02*
X011203Y013005D01*
X011203Y012926D02*
X010997Y012926D01*
X010981Y012848D02*
X011219Y012848D01*
X011251Y012769D02*
X010949Y012769D01*
X010888Y012691D02*
X011312Y012691D01*
X011413Y012612D02*
X010787Y012612D01*
X010413Y012612D02*
X006981Y012612D01*
X006761Y013476D02*
X012021Y013476D01*
X012021Y013554D02*
X006694Y013554D01*
X003908Y011435D02*
X010283Y011435D01*
X010315Y011513D02*
X003833Y011513D01*
X003567Y011513D02*
X000490Y011513D01*
X000490Y011435D02*
X003492Y011435D01*
X003460Y011356D02*
X003460Y011261D01*
X003486Y011199D02*
X000490Y011199D01*
X000490Y011121D02*
X003549Y011121D01*
X000490Y011592D02*
X010386Y011592D01*
X010814Y011592D02*
X010886Y011592D01*
X012021Y009472D02*
X000490Y009472D01*
X000490Y009394D02*
X012021Y009394D01*
X012021Y009158D02*
X007140Y009158D01*
X007180Y009080D02*
X012021Y009080D01*
X012021Y018971D02*
X011731Y018971D01*
X011760Y019049D02*
X012021Y019049D01*
X012021Y019128D02*
X011778Y019128D01*
X011865Y019206D02*
X012021Y019206D01*
X012021Y019285D02*
X011897Y019285D01*
X011900Y019363D02*
X012021Y019363D01*
X012021Y019442D02*
X011877Y019442D01*
X011818Y019520D02*
X012021Y019520D01*
D19*
X011830Y004369D03*
X011830Y003769D03*
X011830Y003169D03*
X011830Y002669D03*
X011330Y002669D03*
X010730Y002669D03*
X010130Y002669D03*
X009530Y002669D03*
X008930Y002669D03*
X008330Y002669D03*
X007730Y002669D03*
X007130Y002669D03*
X006530Y002669D03*
X005930Y002669D03*
X005380Y002629D03*
X005330Y002229D03*
X005330Y001779D03*
X004630Y001579D03*
X004660Y001019D03*
X004110Y001019D03*
X003560Y001019D03*
X003010Y001019D03*
X002460Y001019D03*
X001910Y001019D03*
X001360Y001019D03*
X000810Y001019D03*
X004380Y003079D03*
X004280Y003429D03*
X004930Y003429D03*
X004630Y002779D03*
X004630Y002379D03*
X005310Y001019D03*
M02*
