G75*
G70*
%OFA0B0*%
%FSLAX24Y24*%
%IPPOS*%
%LPD*%
%AMOC8*
5,1,8,0,0,1.08239X$1,22.5*
%
%ADD10R,0.0395X0.0671*%
%ADD11R,0.0592X0.0631*%
%ADD12R,0.0631X0.0828*%
%ADD13R,0.0474X0.0454*%
%ADD14R,0.0552X0.0297*%
%ADD15R,0.0316X0.0316*%
%ADD16R,0.0277X0.0316*%
%ADD17R,0.0316X0.0277*%
%ADD18R,0.0159X0.0159*%
%ADD19R,0.0277X0.0395*%
%ADD20C,0.0050*%
%ADD21C,0.0200*%
%ADD22R,0.0828X0.0631*%
%ADD23R,0.0395X0.0434*%
%ADD24C,0.0556*%
%ADD25C,0.0634*%
%ADD26R,0.0434X0.0395*%
%ADD27C,0.0674*%
%ADD28C,0.0513*%
%ADD29C,0.0316*%
%ADD30R,0.0297X0.0552*%
%ADD31R,0.0395X0.1143*%
%ADD32C,0.0840*%
%ADD33C,0.0740*%
%ADD34C,0.0540*%
D10*
X005492Y003857D03*
X005925Y004014D03*
X006358Y003857D03*
X006791Y003778D03*
X007224Y003857D03*
X007657Y003778D03*
X008090Y003857D03*
X008523Y003857D03*
D11*
X008204Y008132D03*
X005960Y008132D03*
D12*
X003657Y002561D03*
X008834Y002955D03*
D13*
X007657Y008221D03*
D14*
X006767Y015834D03*
X006767Y016209D03*
X006767Y016583D03*
X005744Y016583D03*
X005744Y015834D03*
D15*
X006056Y015259D03*
X006456Y015259D03*
X006456Y014659D03*
X006056Y014659D03*
X005956Y013959D03*
X005556Y013959D03*
X005556Y013359D03*
X005956Y013359D03*
X006556Y013959D03*
X006956Y013959D03*
X006956Y017209D03*
X006556Y017209D03*
X006556Y017809D03*
X006956Y017809D03*
X005956Y017809D03*
X005556Y017809D03*
X005556Y017209D03*
X005956Y017209D03*
X002750Y019659D03*
X002350Y019659D03*
X002350Y020259D03*
X002750Y020259D03*
X005000Y022977D03*
X005000Y023377D03*
X002750Y023409D03*
X002350Y023409D03*
X010220Y023399D03*
X010220Y022999D03*
X011150Y020449D03*
X011550Y020449D03*
D16*
X003677Y021034D03*
X003677Y021625D03*
X003677Y022215D03*
X002535Y022215D03*
X002535Y021625D03*
X002535Y021034D03*
D17*
X003106Y021034D03*
D18*
X003106Y024774D03*
D19*
X003106Y024184D03*
X003500Y024184D03*
X002712Y024184D03*
X002712Y025365D03*
X003106Y025365D03*
X003500Y025365D03*
D20*
X003628Y025099D02*
X003628Y024469D01*
X002594Y024469D01*
X002594Y024922D01*
X002771Y025099D01*
X003628Y025099D01*
X003628Y025057D02*
X002729Y025057D01*
X002681Y025009D02*
X003628Y025009D01*
X003628Y024960D02*
X002632Y024960D01*
X002594Y024912D02*
X003628Y024912D01*
X003628Y024863D02*
X002594Y024863D01*
X002594Y024815D02*
X003628Y024815D01*
X003628Y024766D02*
X002594Y024766D01*
X002594Y024718D02*
X003628Y024718D01*
X003628Y024669D02*
X002594Y024669D01*
X002594Y024621D02*
X003628Y024621D01*
X003628Y024572D02*
X002594Y024572D01*
X002594Y024524D02*
X003628Y024524D01*
X003628Y024475D02*
X002594Y024475D01*
D21*
X006059Y023687D03*
X006256Y023687D03*
X006453Y023687D03*
X006453Y023490D03*
X006453Y023293D03*
X006256Y023293D03*
X006059Y023293D03*
X006059Y023490D03*
D22*
X001450Y022059D03*
X001450Y021059D03*
D23*
X007950Y023027D03*
X007950Y023627D03*
X009590Y023339D03*
X009590Y022739D03*
D24*
X009968Y024381D03*
X010968Y024381D03*
X008968Y024381D03*
D25*
X006756Y021375D03*
X005756Y021375D03*
D26*
X005956Y020059D03*
X006556Y020059D03*
X010890Y019809D03*
X011490Y019809D03*
D27*
X011600Y012964D03*
X010600Y012964D03*
D28*
X007348Y025492D02*
X007348Y025925D01*
X005163Y025925D02*
X005163Y025492D01*
D29*
X005488Y024882D03*
X007023Y024882D03*
D30*
X010806Y023400D03*
X011554Y023400D03*
X011554Y022377D03*
X011180Y022377D03*
X010806Y022377D03*
D31*
X010847Y021419D03*
X011713Y021419D03*
D32*
X011500Y008059D03*
X011500Y007059D03*
X011500Y006059D03*
X011500Y005059D03*
D33*
X006756Y012332D03*
X005756Y012332D03*
D34*
X010600Y011339D03*
X011100Y011339D03*
X011100Y010839D03*
X010600Y010839D03*
X010600Y010339D03*
X011100Y010339D03*
X011100Y009839D03*
X010600Y009839D03*
M02*
