G75*
G70*
%OFA0B0*%
%FSLAX24Y24*%
%IPPOS*%
%LPD*%
%AMOC8*
5,1,8,0,0,1.08239X$1,22.5*
%
%ADD10R,0.0315X0.0591*%
%ADD11R,0.0512X0.0551*%
%ADD12R,0.0551X0.0748*%
%ADD13R,0.0394X0.0374*%
%ADD14R,0.0472X0.0217*%
%ADD15R,0.0236X0.0236*%
%ADD16R,0.0197X0.0236*%
%ADD17R,0.0236X0.0197*%
%ADD18R,0.0079X0.0079*%
%ADD19R,0.0197X0.0315*%
%ADD20C,0.0050*%
%ADD21C,0.0120*%
%ADD22R,0.0748X0.0551*%
%ADD23R,0.0315X0.0354*%
%ADD24R,0.0354X0.0315*%
%ADD25R,0.0217X0.0472*%
%ADD26R,0.0315X0.1063*%
D10*
X015196Y003857D03*
X015630Y003857D03*
X016063Y003778D03*
X016496Y003857D03*
X016929Y003778D03*
X017362Y003857D03*
X017795Y004014D03*
X018228Y003857D03*
D11*
X017759Y008132D03*
X015515Y008132D03*
D12*
X014885Y002955D03*
X020063Y002561D03*
D13*
X016063Y008221D03*
D14*
X016952Y015834D03*
X016952Y016209D03*
X016952Y016583D03*
X017976Y016583D03*
X017976Y015834D03*
D15*
X017664Y015259D03*
X017264Y015259D03*
X017264Y014659D03*
X017664Y014659D03*
X017764Y013959D03*
X018164Y013959D03*
X018164Y013359D03*
X017764Y013359D03*
X017164Y013959D03*
X016764Y013959D03*
X016764Y017209D03*
X017164Y017209D03*
X017164Y017809D03*
X016764Y017809D03*
X017764Y017809D03*
X018164Y017809D03*
X018164Y017209D03*
X017764Y017209D03*
X020970Y019659D03*
X021370Y019659D03*
X021370Y020259D03*
X020970Y020259D03*
X018720Y022977D03*
X018720Y023377D03*
X020970Y023409D03*
X021370Y023409D03*
X013500Y023399D03*
X013500Y022999D03*
X012570Y020449D03*
X012170Y020449D03*
D16*
X020043Y021034D03*
X020043Y021625D03*
X020043Y022215D03*
X021185Y022215D03*
X021185Y021625D03*
X021185Y021034D03*
D17*
X020614Y021034D03*
D18*
X020614Y024774D03*
D19*
X020614Y024184D03*
X020220Y024184D03*
X021008Y024184D03*
X021008Y025365D03*
X020614Y025365D03*
X020220Y025365D03*
D20*
X020200Y024991D02*
X020870Y024991D01*
X021047Y024814D01*
X021047Y024558D01*
X020200Y024558D01*
X020200Y024991D01*
X020200Y024960D02*
X020900Y024960D01*
X020949Y024912D02*
X020200Y024912D01*
X020200Y024863D02*
X020997Y024863D01*
X021046Y024815D02*
X020200Y024815D01*
X020200Y024766D02*
X021047Y024766D01*
X021047Y024718D02*
X020200Y024718D01*
X020200Y024669D02*
X021047Y024669D01*
X021047Y024621D02*
X020200Y024621D01*
X020200Y024572D02*
X021047Y024572D01*
D21*
X017661Y023687D03*
X017464Y023687D03*
X017267Y023687D03*
X017267Y023490D03*
X017267Y023293D03*
X017464Y023293D03*
X017661Y023293D03*
X017661Y023490D03*
D22*
X022270Y022059D03*
X022270Y021059D03*
D23*
X015770Y023027D03*
X015770Y023627D03*
X014130Y023339D03*
X014130Y022739D03*
D24*
X012830Y019809D03*
X012230Y019809D03*
X017164Y020059D03*
X017764Y020059D03*
D25*
X012914Y022377D03*
X012540Y022377D03*
X012166Y022377D03*
X012166Y023400D03*
X012914Y023400D03*
D26*
X012873Y021419D03*
X012007Y021419D03*
M02*
