G75*
G70*
%OFA0B0*%
%FSLAX24Y24*%
%IPPOS*%
%LPD*%
%AMOC8*
5,1,8,0,0,1.08239X$1,22.5*
%
%ADD10R,0.0300X0.0580*%
%ADD11R,0.0631X0.0434*%
%ADD12R,0.0434X0.0395*%
%ADD13R,0.0316X0.0316*%
%ADD14R,0.0395X0.0434*%
%ADD15R,0.1891X0.0474*%
%ADD16R,0.1419X0.0710*%
%ADD17C,0.0556*%
%ADD18C,0.0634*%
%ADD19C,0.0674*%
%ADD20R,0.0395X0.0198*%
%ADD21R,0.0198X0.0395*%
%ADD22R,0.0237X0.0611*%
%ADD23C,0.0513*%
%ADD24R,0.0671X0.0828*%
%ADD25C,0.0316*%
%ADD26R,0.0552X0.0218*%
%ADD27R,0.0218X0.0552*%
%ADD28R,0.0474X0.0474*%
%ADD29C,0.0277*%
%ADD30R,0.0474X0.0867*%
%ADD31R,0.1182X0.0395*%
%ADD32R,0.0320X0.0260*%
%ADD33C,0.0840*%
%ADD34R,0.0631X0.0907*%
%ADD35R,0.0513X0.0631*%
%ADD36C,0.0740*%
%ADD37R,0.0710X0.0867*%
%ADD38C,0.0540*%
D10*
X006036Y022558D03*
X006406Y022558D03*
X006776Y022558D03*
X006776Y023578D03*
X006036Y023578D03*
D11*
X003677Y026115D03*
X002732Y026115D03*
D12*
X003480Y025289D03*
X004080Y025289D03*
D13*
X002680Y025289D03*
X002280Y025289D03*
X002720Y022079D03*
X002720Y021679D03*
X003320Y021679D03*
X003320Y022079D03*
X003910Y022079D03*
X003910Y021679D03*
X007830Y022099D03*
X007830Y022499D03*
X007830Y023169D03*
X007830Y023569D03*
X007550Y009859D03*
X007550Y009459D03*
X007000Y009459D03*
X007000Y009859D03*
X006450Y009859D03*
X006450Y009459D03*
X005900Y009459D03*
X005900Y009859D03*
X005350Y009859D03*
X005350Y009459D03*
X004800Y009459D03*
X004800Y009859D03*
X004250Y009859D03*
X004250Y009459D03*
X003700Y009459D03*
X003700Y009859D03*
X003150Y009859D03*
X003150Y009459D03*
X002600Y009459D03*
X002600Y009859D03*
X002050Y009859D03*
X002050Y009459D03*
X005400Y003209D03*
X005800Y003209D03*
X006600Y003209D03*
X007000Y003209D03*
X003650Y002359D03*
X003650Y001959D03*
X003000Y001959D03*
X003000Y002359D03*
D14*
X005230Y022949D03*
X005230Y023549D03*
D15*
X009142Y022577D03*
X009142Y021790D03*
D16*
X011189Y020845D03*
X011189Y023522D03*
D17*
X010968Y024381D03*
X009968Y024381D03*
X008968Y024381D03*
D18*
X006756Y021375D03*
X005756Y021375D03*
D19*
X010600Y012964D03*
X011600Y012964D03*
D20*
X003412Y023101D03*
X003412Y023298D03*
X003412Y023495D03*
X003412Y023692D03*
X003412Y023888D03*
X003412Y024085D03*
X001837Y024085D03*
X001837Y023888D03*
X001837Y023692D03*
X001837Y023495D03*
X001837Y023298D03*
X001837Y023101D03*
D21*
X002133Y022806D03*
X002330Y022806D03*
X002526Y022806D03*
X002723Y022806D03*
X002920Y022806D03*
X003117Y022806D03*
X003117Y024381D03*
X002920Y024381D03*
X002723Y024381D03*
X002526Y024381D03*
X002330Y024381D03*
X002133Y024381D03*
D22*
X005744Y024655D03*
X006000Y024655D03*
X006256Y024655D03*
X006511Y024655D03*
X006767Y024655D03*
D23*
X007348Y025492D02*
X007348Y025925D01*
X005163Y025925D02*
X005163Y025492D01*
D24*
X005862Y025705D03*
X006649Y025709D03*
D25*
X007023Y024882D03*
X005488Y024882D03*
D26*
X004267Y007900D03*
X004267Y007624D03*
X004267Y007349D03*
X004267Y007073D03*
X004267Y006797D03*
X004267Y006522D03*
X004267Y006246D03*
X004267Y005971D03*
X004267Y005695D03*
X004267Y005420D03*
X004267Y005144D03*
X004267Y004868D03*
X004267Y004593D03*
X004267Y004317D03*
X008244Y004317D03*
X008244Y004593D03*
X008244Y004868D03*
X008244Y005144D03*
X008244Y005420D03*
X008244Y005695D03*
X008244Y005971D03*
X008244Y006246D03*
X008244Y006522D03*
X008244Y006797D03*
X008244Y007073D03*
X008244Y007349D03*
X008244Y007624D03*
X008244Y007900D03*
D27*
X007909Y008294D03*
X007633Y008294D03*
X007358Y008294D03*
X007082Y008294D03*
X006807Y008294D03*
X006531Y008294D03*
X006256Y008294D03*
X005980Y008294D03*
X005704Y008294D03*
X005429Y008294D03*
X005153Y008294D03*
X004878Y008294D03*
X004602Y008294D03*
X004602Y003923D03*
X004878Y003923D03*
X005153Y003923D03*
X005429Y003923D03*
X005704Y003923D03*
X005980Y003923D03*
X006256Y003923D03*
X006531Y003923D03*
X006807Y003923D03*
X007082Y003923D03*
X007358Y003923D03*
X007633Y003923D03*
X007909Y003923D03*
D28*
X008283Y003884D03*
X007200Y005164D03*
X006256Y005164D03*
X006256Y006109D03*
X006256Y007053D03*
X007200Y007053D03*
X007200Y006109D03*
X005311Y006109D03*
X005311Y007053D03*
X004228Y008333D03*
X005311Y005164D03*
X004228Y003884D03*
X008283Y008333D03*
D29*
X004878Y007683D03*
D30*
X006059Y001349D03*
X008815Y001349D03*
D31*
X007437Y001028D03*
X007437Y001670D03*
D32*
X004986Y001779D03*
X004986Y002159D03*
X004986Y001399D03*
X004986Y001019D03*
D33*
X011500Y005059D03*
X011500Y006059D03*
X011500Y007059D03*
X011500Y008059D03*
D34*
X010291Y015109D03*
X008519Y015109D03*
X008519Y018692D03*
X010291Y018692D03*
X003992Y018692D03*
X002220Y018692D03*
X002220Y015109D03*
X003992Y015109D03*
D35*
X005901Y019085D03*
X006610Y019085D03*
X006610Y020227D03*
X005901Y020227D03*
D36*
X005756Y012332D03*
X006756Y012332D03*
D37*
X001800Y001846D03*
X001800Y003971D03*
X001800Y005046D03*
X001800Y007171D03*
D38*
X010600Y009839D03*
X010600Y010339D03*
X010600Y010839D03*
X010600Y011339D03*
X011100Y011339D03*
X011100Y010839D03*
X011100Y010339D03*
X011100Y009839D03*
M02*
