G75*
G70*
%OFA0B0*%
%FSLAX24Y24*%
%IPPOS*%
%LPD*%
%AMOC8*
5,1,8,0,0,1.08239X$1,22.5*
%
%ADD10C,0.0100*%
%ADD11C,0.0080*%
%ADD12C,0.0160*%
%ADD13C,0.0050*%
%ADD14C,0.0070*%
%ADD15C,0.0060*%
%ADD16C,0.0000*%
%ADD17C,0.0030*%
%ADD18R,0.0394X0.0787*%
%ADD19C,0.0010*%
%ADD20C,0.0079*%
%ADD21C,0.0040*%
%ADD22C,0.0090*%
D10*
X010200Y009439D02*
X010200Y011739D01*
X011500Y011739D01*
X011500Y009439D01*
X010200Y009439D01*
X001813Y019317D02*
X001673Y019367D01*
X001763Y019417D01*
X001813Y019317D01*
X001763Y019396D02*
X001748Y019360D01*
X001729Y019326D01*
X001707Y019294D01*
X001682Y019264D01*
X001655Y019237D01*
X001624Y019212D01*
X001592Y019191D01*
X001557Y019173D01*
X001521Y019159D01*
X001483Y019148D01*
X001445Y019141D01*
X001406Y019138D01*
X001367Y019139D01*
X001329Y019143D01*
X001290Y019152D01*
X001253Y019164D01*
X001218Y019180D01*
X001184Y019199D01*
X001152Y019221D01*
X001123Y019247D01*
X001096Y019275D01*
X001072Y019306D01*
X001051Y019339D01*
X001034Y019374D01*
X001020Y019410D01*
X001010Y019448D01*
X001004Y019486D01*
X001201Y020003D02*
X001251Y020103D01*
X001301Y019953D01*
X001201Y020003D01*
X001229Y020005D01*
X001257Y020010D01*
X001284Y020019D01*
X001309Y020031D01*
X001333Y020046D01*
X001355Y020064D01*
X001374Y020085D01*
X001391Y020107D01*
X001405Y020132D01*
X001415Y020158D01*
X001422Y020186D01*
X001426Y020214D01*
X001426Y020242D01*
X001422Y020270D01*
X001415Y020298D01*
X001405Y020324D01*
X001391Y020349D01*
X001374Y020371D01*
X001355Y020392D01*
X001333Y020410D01*
X001309Y020425D01*
X001284Y020437D01*
X001257Y020446D01*
X001229Y020451D01*
X001201Y020453D01*
X001101Y020253D02*
X001751Y020253D01*
X001651Y020153D01*
X001651Y020353D01*
X001751Y020253D01*
X001411Y020663D02*
X001411Y021363D01*
X001511Y021263D01*
X001521Y021253D02*
X001301Y021253D01*
X001311Y021263D02*
X001411Y021363D01*
X001571Y020863D02*
X001711Y020913D01*
X001661Y020813D01*
X001571Y020863D01*
X001661Y020813D02*
X001659Y020843D01*
X001654Y020873D01*
X001645Y020902D01*
X001632Y020929D01*
X001617Y020955D01*
X001598Y020979D01*
X001577Y021000D01*
X001553Y021019D01*
X001527Y021034D01*
X001500Y021047D01*
X001471Y021056D01*
X001441Y021061D01*
X001411Y021063D01*
X001381Y021061D01*
X001351Y021056D01*
X001322Y021047D01*
X001295Y021034D01*
X001269Y021019D01*
X001245Y021000D01*
X001224Y020979D01*
X001205Y020955D01*
X001190Y020929D01*
X001177Y020902D01*
X001168Y020873D01*
X001163Y020843D01*
X001161Y020813D01*
X001211Y018263D02*
X001111Y018163D01*
X001101Y018153D02*
X001321Y018153D01*
X001311Y018163D02*
X001211Y018263D01*
X001211Y017663D01*
X001101Y017453D02*
X001101Y017253D01*
X001201Y017353D01*
X001101Y017453D01*
X001201Y017353D02*
X000651Y017353D01*
X001625Y024543D02*
X001627Y024556D01*
X001632Y024569D01*
X001641Y024580D01*
X001652Y024587D01*
X001665Y024592D01*
X001678Y024593D01*
X001692Y024590D01*
X001704Y024584D01*
X001714Y024575D01*
X001721Y024563D01*
X001725Y024550D01*
X001725Y024536D01*
X001721Y024523D01*
X001714Y024511D01*
X001704Y024502D01*
X001692Y024496D01*
X001678Y024493D01*
X001665Y024494D01*
X001652Y024499D01*
X001641Y024506D01*
X001632Y024517D01*
X001627Y024530D01*
X001625Y024543D01*
D11*
X001111Y004090D02*
X001111Y001727D01*
X001308Y001727D01*
X001505Y002436D02*
X001505Y003401D01*
X002095Y003401D02*
X002095Y002416D01*
X002292Y001727D02*
X002489Y001727D01*
X002489Y004090D01*
X002292Y004090D01*
X002292Y004927D02*
X002489Y004927D01*
X002489Y007290D01*
X002292Y007290D01*
X002095Y006581D02*
X002095Y005616D01*
X001505Y005616D02*
X001505Y006601D01*
X001308Y007290D02*
X001111Y007290D01*
X001111Y004927D01*
X001308Y004927D01*
X001308Y004090D02*
X001111Y004090D01*
X002781Y002575D02*
X003219Y002575D01*
X003219Y001742D01*
X002781Y001742D01*
X002781Y002575D01*
X003431Y002575D02*
X003431Y001742D01*
X003869Y001742D01*
X003869Y002575D01*
X003431Y002575D01*
X005184Y002990D02*
X005184Y003427D01*
X006016Y003427D01*
X006016Y002990D01*
X005184Y002990D01*
X006384Y002990D02*
X006384Y003427D01*
X007216Y003427D01*
X007216Y002990D01*
X006384Y002990D01*
X006231Y009242D02*
X006231Y010075D01*
X006669Y010075D01*
X006669Y009242D01*
X006231Y009242D01*
X006119Y009242D02*
X005681Y009242D01*
X005681Y010075D01*
X006119Y010075D01*
X006119Y009242D01*
X005569Y009242D02*
X005131Y009242D01*
X005131Y010075D01*
X005569Y010075D01*
X005569Y009242D01*
X005019Y009242D02*
X004581Y009242D01*
X004581Y010075D01*
X005019Y010075D01*
X005019Y009242D01*
X004469Y009242D02*
X004469Y010075D01*
X004031Y010075D01*
X004031Y009242D01*
X004469Y009242D01*
X003919Y009242D02*
X003481Y009242D01*
X003481Y010075D01*
X003919Y010075D01*
X003919Y009242D01*
X003369Y009242D02*
X002931Y009242D01*
X002931Y010075D01*
X003369Y010075D01*
X003369Y009242D01*
X002819Y009242D02*
X002819Y010075D01*
X002381Y010075D01*
X002381Y009242D01*
X002819Y009242D01*
X002269Y009242D02*
X001831Y009242D01*
X001831Y010075D01*
X002269Y010075D01*
X002269Y009242D01*
X004347Y013120D02*
X004349Y013214D01*
X004356Y013307D01*
X004368Y013400D01*
X004384Y013492D01*
X004404Y013584D01*
X004429Y013674D01*
X004459Y013763D01*
X004492Y013851D01*
X004530Y013936D01*
X004572Y014020D01*
X004619Y014101D01*
X004669Y014181D01*
X004723Y014257D01*
X004780Y014331D01*
X004842Y014402D01*
X004906Y014470D01*
X004974Y014534D01*
X005045Y014596D01*
X005119Y014653D01*
X005195Y014707D01*
X005275Y014757D01*
X005356Y014804D01*
X005440Y014846D01*
X005525Y014884D01*
X005613Y014917D01*
X005702Y014947D01*
X005792Y014972D01*
X005884Y014992D01*
X005976Y015008D01*
X006069Y015020D01*
X006162Y015027D01*
X006256Y015029D01*
X006350Y015027D01*
X006443Y015020D01*
X006536Y015008D01*
X006628Y014992D01*
X006720Y014972D01*
X006810Y014947D01*
X006899Y014917D01*
X006987Y014884D01*
X007072Y014846D01*
X007156Y014804D01*
X007237Y014757D01*
X007317Y014707D01*
X007393Y014653D01*
X007467Y014596D01*
X007538Y014534D01*
X007606Y014470D01*
X007670Y014402D01*
X007732Y014331D01*
X007789Y014257D01*
X007843Y014181D01*
X007893Y014101D01*
X007940Y014020D01*
X007982Y013936D01*
X008020Y013851D01*
X008053Y013763D01*
X008083Y013674D01*
X008108Y013584D01*
X008128Y013492D01*
X008144Y013400D01*
X008156Y013307D01*
X008163Y013214D01*
X008165Y013120D01*
X008163Y013026D01*
X008156Y012933D01*
X008144Y012840D01*
X008128Y012748D01*
X008108Y012656D01*
X008083Y012566D01*
X008053Y012477D01*
X008020Y012389D01*
X007982Y012304D01*
X007940Y012220D01*
X007893Y012139D01*
X007843Y012059D01*
X007789Y011983D01*
X007732Y011909D01*
X007670Y011838D01*
X007606Y011770D01*
X007538Y011706D01*
X007467Y011644D01*
X007393Y011587D01*
X007317Y011533D01*
X007237Y011483D01*
X007156Y011436D01*
X007072Y011394D01*
X006987Y011356D01*
X006899Y011323D01*
X006810Y011293D01*
X006720Y011268D01*
X006628Y011248D01*
X006536Y011232D01*
X006443Y011220D01*
X006350Y011213D01*
X006256Y011211D01*
X006162Y011213D01*
X006069Y011220D01*
X005976Y011232D01*
X005884Y011248D01*
X005792Y011268D01*
X005702Y011293D01*
X005613Y011323D01*
X005525Y011356D01*
X005440Y011394D01*
X005356Y011436D01*
X005275Y011483D01*
X005195Y011533D01*
X005119Y011587D01*
X005045Y011644D01*
X004974Y011706D01*
X004906Y011770D01*
X004842Y011838D01*
X004780Y011909D01*
X004723Y011983D01*
X004669Y012059D01*
X004619Y012139D01*
X004572Y012220D01*
X004530Y012304D01*
X004492Y012389D01*
X004459Y012477D01*
X004429Y012566D01*
X004404Y012656D01*
X004384Y012748D01*
X004368Y012840D01*
X004356Y012933D01*
X004349Y013026D01*
X004347Y013120D01*
X006781Y010075D02*
X007219Y010075D01*
X007219Y009242D01*
X006781Y009242D01*
X006781Y010075D01*
X007331Y010075D02*
X007769Y010075D01*
X007769Y009242D01*
X007331Y009242D01*
X007331Y010075D01*
X001411Y016663D02*
X001111Y016963D01*
X001101Y016963D01*
X001037Y016813D02*
X001039Y016842D01*
X001045Y016871D01*
X001054Y016899D01*
X001067Y016925D01*
X001083Y016949D01*
X001103Y016971D01*
X001125Y016991D01*
X001149Y017007D01*
X001175Y017020D01*
X001203Y017029D01*
X001232Y017035D01*
X001261Y017037D01*
X001290Y017035D01*
X001319Y017029D01*
X001347Y017020D01*
X001373Y017007D01*
X001397Y016991D01*
X001419Y016971D01*
X001439Y016949D01*
X001455Y016925D01*
X001468Y016899D01*
X001477Y016871D01*
X001483Y016842D01*
X001485Y016813D01*
X001483Y016784D01*
X001477Y016755D01*
X001468Y016727D01*
X001455Y016701D01*
X001439Y016677D01*
X001419Y016655D01*
X001397Y016635D01*
X001373Y016619D01*
X001347Y016606D01*
X001319Y016597D01*
X001290Y016591D01*
X001261Y016589D01*
X001232Y016591D01*
X001203Y016597D01*
X001175Y016606D01*
X001149Y016619D01*
X001125Y016635D01*
X001103Y016655D01*
X001083Y016677D01*
X001067Y016701D01*
X001054Y016727D01*
X001045Y016755D01*
X001039Y016784D01*
X001037Y016813D01*
X001111Y016653D02*
X001421Y016963D01*
X000865Y019403D02*
X000651Y019403D01*
X000651Y019456D01*
X000865Y019669D01*
X000865Y019723D01*
X000651Y019723D01*
X000751Y020103D02*
X000965Y020423D01*
X000751Y020423D02*
X000965Y020103D01*
X000858Y020753D02*
X000858Y020913D01*
X000965Y021019D01*
X000965Y021073D01*
X000858Y020913D02*
X000751Y021019D01*
X000751Y021073D01*
X001149Y019527D02*
X001151Y019556D01*
X001157Y019585D01*
X001166Y019613D01*
X001179Y019639D01*
X001195Y019663D01*
X001215Y019685D01*
X001237Y019705D01*
X001261Y019721D01*
X001287Y019734D01*
X001315Y019743D01*
X001344Y019749D01*
X001373Y019751D01*
X001402Y019749D01*
X001431Y019743D01*
X001459Y019734D01*
X001485Y019721D01*
X001509Y019705D01*
X001531Y019685D01*
X001551Y019663D01*
X001567Y019639D01*
X001580Y019613D01*
X001589Y019585D01*
X001595Y019556D01*
X001597Y019527D01*
X001595Y019498D01*
X001589Y019469D01*
X001580Y019441D01*
X001567Y019415D01*
X001551Y019391D01*
X001531Y019369D01*
X001509Y019349D01*
X001485Y019333D01*
X001459Y019320D01*
X001431Y019311D01*
X001402Y019305D01*
X001373Y019303D01*
X001344Y019305D01*
X001315Y019311D01*
X001287Y019320D01*
X001261Y019333D01*
X001237Y019349D01*
X001215Y019369D01*
X001195Y019391D01*
X001179Y019415D01*
X001166Y019441D01*
X001157Y019469D01*
X001151Y019498D01*
X001149Y019527D01*
X002501Y021462D02*
X002939Y021462D01*
X002939Y022295D01*
X002501Y022295D01*
X002501Y021462D01*
X003101Y021462D02*
X003101Y022295D01*
X003539Y022295D01*
X003539Y021462D01*
X003101Y021462D01*
X003691Y021462D02*
X003691Y022295D01*
X004129Y022295D01*
X004129Y021462D01*
X003691Y021462D01*
X003412Y022806D02*
X003274Y022806D01*
X003412Y022806D02*
X003412Y022944D01*
X003412Y024243D02*
X003412Y024381D01*
X003274Y024381D01*
X003205Y025039D02*
X003205Y025539D01*
X004355Y025539D01*
X004355Y025039D01*
X003205Y025039D01*
X002896Y025070D02*
X002064Y025070D01*
X002064Y025507D01*
X002896Y025507D01*
X002896Y025070D01*
X001975Y024381D02*
X001837Y024243D01*
X001837Y022944D02*
X001837Y022806D01*
X001975Y022806D01*
X004980Y022674D02*
X005480Y022674D01*
X005480Y023824D01*
X004980Y023824D01*
X004980Y022674D01*
X004917Y024626D02*
X004917Y025256D01*
X005389Y025177D02*
X005389Y024626D01*
X004917Y024626D01*
X005389Y025177D02*
X007122Y025177D01*
X007122Y024626D01*
X007594Y024626D01*
X007594Y025256D01*
X007594Y026319D02*
X004917Y026319D01*
X007611Y023785D02*
X007611Y022952D01*
X008049Y022952D01*
X008049Y023785D01*
X007611Y023785D01*
X007611Y022715D02*
X008049Y022715D01*
X008049Y021882D01*
X007611Y021882D01*
X007611Y022715D01*
X008827Y023444D02*
X009811Y023444D01*
X009811Y022971D01*
X010205Y023759D02*
X008827Y023759D01*
X008827Y023444D01*
X009811Y021396D02*
X009811Y020924D01*
X008827Y020924D01*
X008827Y020609D01*
X010205Y020609D01*
X011780Y021396D02*
X011780Y022971D01*
X006806Y019856D02*
X006806Y019456D01*
X006296Y019026D02*
X006216Y019026D01*
X005706Y019456D02*
X005706Y019856D01*
X006216Y020286D02*
X006296Y020286D01*
D12*
X007006Y020256D02*
X007008Y020269D01*
X007013Y020282D01*
X007022Y020293D01*
X007033Y020300D01*
X007046Y020305D01*
X007059Y020306D01*
X007073Y020303D01*
X007085Y020297D01*
X007095Y020288D01*
X007102Y020276D01*
X007106Y020263D01*
X007106Y020249D01*
X007102Y020236D01*
X007095Y020224D01*
X007085Y020215D01*
X007073Y020209D01*
X007059Y020206D01*
X007046Y020207D01*
X007033Y020212D01*
X007022Y020219D01*
X007013Y020230D01*
X007008Y020243D01*
X007006Y020256D01*
X001362Y019528D02*
X001364Y019533D01*
X001368Y019537D01*
X001373Y019538D01*
X001379Y019536D01*
X001382Y019531D01*
X001382Y019525D01*
X001379Y019520D01*
X001373Y019518D01*
X001368Y019519D01*
X001364Y019523D01*
X001362Y019528D01*
X003738Y007899D02*
X003740Y007913D01*
X003745Y007927D01*
X003754Y007939D01*
X003765Y007948D01*
X003778Y007954D01*
X003792Y007957D01*
X003807Y007956D01*
X003821Y007951D01*
X003833Y007944D01*
X003843Y007933D01*
X003850Y007920D01*
X003854Y007906D01*
X003854Y007892D01*
X003850Y007878D01*
X003843Y007865D01*
X003833Y007854D01*
X003821Y007847D01*
X003807Y007842D01*
X003792Y007841D01*
X003778Y007844D01*
X003765Y007850D01*
X003754Y007859D01*
X003745Y007871D01*
X003740Y007885D01*
X003738Y007899D01*
D13*
X010100Y012464D02*
X010100Y013464D01*
X011100Y013464D01*
X011100Y012464D01*
X010100Y012464D01*
X011100Y012464D02*
X012100Y012464D01*
X012100Y013464D01*
X011100Y013464D01*
X006476Y019656D02*
X006256Y019656D01*
X006036Y019656D02*
X006038Y019685D01*
X006044Y019714D01*
X006053Y019742D01*
X006067Y019768D01*
X006083Y019792D01*
X006103Y019814D01*
X006126Y019833D01*
X006150Y019849D01*
X006177Y019861D01*
X006205Y019870D01*
X006234Y019875D01*
X006263Y019876D01*
X006293Y019873D01*
X006321Y019866D01*
X006349Y019856D01*
X006374Y019841D01*
X006398Y019824D01*
X006419Y019804D01*
X006437Y019781D01*
X006452Y019755D01*
X006464Y019728D01*
X006472Y019700D01*
X006476Y019671D01*
X006476Y019641D01*
X006472Y019612D01*
X006464Y019584D01*
X006452Y019557D01*
X006437Y019531D01*
X006419Y019508D01*
X006398Y019488D01*
X006374Y019471D01*
X006349Y019456D01*
X006321Y019446D01*
X006293Y019439D01*
X006263Y019436D01*
X006234Y019437D01*
X006205Y019442D01*
X006177Y019451D01*
X006150Y019463D01*
X006126Y019479D01*
X006103Y019498D01*
X006083Y019520D01*
X006067Y019544D01*
X006053Y019570D01*
X006044Y019598D01*
X006038Y019627D01*
X006036Y019656D01*
X006256Y019656D02*
X006256Y019876D01*
X006304Y019871D01*
X006351Y019854D01*
X006393Y019828D01*
X006428Y019793D01*
X006454Y019752D01*
X006470Y019705D01*
X006476Y019656D01*
X006474Y019674D02*
X006256Y019674D01*
X006256Y019722D02*
X006464Y019722D01*
X006442Y019771D02*
X006256Y019771D01*
X006256Y019819D02*
X006402Y019819D01*
X006313Y019868D02*
X006256Y019868D01*
X008000Y024814D02*
X008000Y026192D01*
X011937Y026192D01*
X011937Y024814D01*
X008000Y024814D01*
X008868Y024781D02*
X008868Y024681D01*
X009068Y024681D02*
X009068Y024781D01*
X009868Y024781D02*
X009868Y024681D01*
X010068Y024681D02*
X010068Y024781D01*
X010868Y024781D02*
X010868Y024681D01*
X011068Y024681D02*
X011068Y024781D01*
X003796Y025721D02*
X002612Y025721D01*
X002612Y025918D01*
X003106Y026016D02*
X003106Y026213D01*
X003303Y026115D01*
X003303Y026213D01*
X003303Y026115D02*
X003303Y026016D01*
X003303Y026115D02*
X003106Y026016D01*
X003796Y025918D02*
X003796Y025721D01*
X001565Y022113D02*
X001482Y022113D01*
X001440Y022072D01*
X001440Y021988D01*
X001482Y021947D01*
X001565Y021947D01*
X001607Y021988D01*
X001607Y022072D01*
X001565Y022113D01*
X001335Y022113D02*
X001293Y022113D01*
X001210Y022030D01*
X001210Y021947D02*
X001210Y022113D01*
X001101Y022113D02*
X001101Y021905D01*
X001059Y021863D01*
X001017Y021863D01*
X000975Y021947D02*
X000934Y021988D01*
X000934Y022113D01*
X000824Y022072D02*
X000741Y022072D01*
X000824Y022072D02*
X000824Y021988D01*
X000783Y021947D01*
X000699Y021947D01*
X000657Y021988D01*
X000657Y022155D01*
X000699Y022197D01*
X000783Y022197D01*
X000824Y022155D01*
X000975Y021947D02*
X001101Y021947D01*
X001100Y021724D02*
X000974Y021724D01*
X000933Y021683D01*
X000933Y021599D01*
X000974Y021558D01*
X001100Y021558D01*
X001209Y021599D02*
X001209Y021683D01*
X001251Y021724D01*
X001376Y021724D01*
X001485Y021683D02*
X001485Y021599D01*
X001527Y021558D01*
X001610Y021558D01*
X001652Y021641D02*
X001485Y021641D01*
X001485Y021683D02*
X001527Y021724D01*
X001610Y021724D01*
X001652Y021683D01*
X001652Y021641D01*
X001761Y021558D02*
X001845Y021558D01*
X001803Y021558D02*
X001803Y021808D01*
X001761Y021808D01*
X001376Y021558D02*
X001251Y021558D01*
X001209Y021599D01*
X000823Y021558D02*
X000823Y021724D01*
X000740Y021808D01*
X000656Y021724D01*
X000656Y021558D01*
X000656Y021683D02*
X000823Y021683D01*
X000874Y018747D02*
X000874Y018497D01*
X000984Y018538D02*
X001025Y018580D01*
X001151Y018580D01*
X001151Y018622D02*
X001151Y018497D01*
X001025Y018497D01*
X000984Y018538D01*
X001025Y018663D02*
X001109Y018663D01*
X001151Y018622D01*
X001260Y018622D02*
X001302Y018663D01*
X001427Y018663D01*
X001427Y018455D01*
X001385Y018413D01*
X001343Y018413D01*
X001302Y018497D02*
X001427Y018497D01*
X001302Y018497D02*
X001260Y018538D01*
X001260Y018622D01*
X000874Y018747D02*
X000791Y018663D01*
X000707Y018747D01*
X000707Y018497D01*
D14*
X000746Y018078D02*
X000967Y017748D01*
X000746Y017748D02*
X000967Y018078D01*
X001366Y017598D02*
X001366Y017543D01*
X001477Y017433D01*
X001477Y017268D01*
X001477Y017433D02*
X001587Y017543D01*
X001587Y017598D01*
X000867Y016978D02*
X000867Y016923D01*
X000646Y016703D01*
X000646Y016648D01*
X000867Y016648D01*
X000867Y016978D02*
X000646Y016978D01*
X010135Y011929D02*
X010190Y011874D01*
X010245Y011874D01*
X010300Y011929D01*
X010300Y012204D01*
X010245Y012204D02*
X010355Y012204D01*
X010503Y012204D02*
X010724Y012204D01*
X010613Y012204D02*
X010613Y011874D01*
X010872Y011874D02*
X010872Y012094D01*
X010982Y012204D01*
X011092Y012094D01*
X011092Y011874D01*
X011240Y011929D02*
X011240Y012149D01*
X011295Y012204D01*
X011405Y012204D01*
X011460Y012149D01*
X011460Y012039D02*
X011350Y012039D01*
X011460Y012039D02*
X011460Y011929D01*
X011405Y011874D01*
X011295Y011874D01*
X011240Y011929D01*
X011092Y012039D02*
X010872Y012039D01*
X010930Y013694D02*
X011040Y013694D01*
X011095Y013749D01*
X011095Y014024D01*
X011243Y014024D02*
X011463Y014024D01*
X011463Y013969D01*
X011243Y013749D01*
X011243Y013694D01*
X011463Y013694D01*
X011611Y013694D02*
X011831Y013694D01*
X011611Y013694D02*
X011611Y013749D01*
X011831Y013969D01*
X011831Y014024D01*
X011611Y014024D01*
X010930Y013694D02*
X010875Y013749D01*
X010875Y014024D01*
X010726Y013969D02*
X010726Y013914D01*
X010671Y013859D01*
X010506Y013859D01*
X010506Y013694D02*
X010506Y014024D01*
X010671Y014024D01*
X010726Y013969D01*
X010671Y013859D02*
X010726Y013804D01*
X010726Y013749D01*
X010671Y013694D01*
X010506Y013694D01*
X010985Y009174D02*
X010930Y009119D01*
X010930Y008899D01*
X010985Y008844D01*
X011095Y008844D01*
X011150Y008899D01*
X011298Y008844D02*
X011298Y009064D01*
X011408Y009174D01*
X011519Y009064D01*
X011519Y008844D01*
X011667Y008844D02*
X011667Y009174D01*
X011777Y009064D01*
X011887Y009174D01*
X011887Y008844D01*
X011519Y009009D02*
X011298Y009009D01*
X011150Y009119D02*
X011095Y009174D01*
X010985Y009174D01*
D15*
X011250Y008559D02*
X011750Y008559D01*
X012000Y008309D01*
X012000Y007809D01*
X011750Y007559D01*
X012000Y007309D01*
X012000Y006809D01*
X011750Y006559D01*
X012000Y006309D01*
X012000Y005809D01*
X011750Y005559D01*
X012000Y005309D01*
X012000Y004809D01*
X011750Y004559D01*
X011250Y004559D01*
X011000Y004809D01*
X011000Y005309D01*
X011250Y005559D01*
X011000Y005809D01*
X011000Y006309D01*
X011250Y006559D01*
X011000Y006809D01*
X011000Y007309D01*
X011250Y007559D01*
X011000Y007809D01*
X011000Y008309D01*
X011250Y008559D01*
X010689Y008172D02*
X010689Y008115D01*
X010632Y008059D01*
X010689Y008002D01*
X010689Y007945D01*
X010632Y007889D01*
X010518Y007889D01*
X010462Y007945D01*
X010320Y008002D02*
X010320Y008229D01*
X010462Y008172D02*
X010518Y008229D01*
X010632Y008229D01*
X010689Y008172D01*
X010632Y008059D02*
X010575Y008059D01*
X010320Y008002D02*
X010207Y007889D01*
X010093Y008002D01*
X010093Y008229D01*
X009952Y008172D02*
X009952Y008115D01*
X009895Y008059D01*
X009952Y008002D01*
X009952Y007945D01*
X009895Y007889D01*
X009782Y007889D01*
X009725Y007945D01*
X009838Y008059D02*
X009895Y008059D01*
X009952Y008172D02*
X009895Y008229D01*
X009782Y008229D01*
X009725Y008172D01*
X010093Y007229D02*
X010320Y007229D01*
X010207Y007229D02*
X010207Y006889D01*
X010462Y006889D02*
X010689Y007229D01*
X010462Y007229D02*
X010689Y006889D01*
X010689Y006229D02*
X010462Y005889D01*
X010320Y005889D02*
X010207Y006002D01*
X010264Y006002D02*
X010093Y006002D01*
X010093Y005889D02*
X010093Y006229D01*
X010264Y006229D01*
X010320Y006172D01*
X010320Y006059D01*
X010264Y006002D01*
X010462Y006229D02*
X010689Y005889D01*
X010632Y005229D02*
X010462Y005229D01*
X010462Y004889D01*
X010632Y004889D01*
X010689Y004945D01*
X010689Y005172D01*
X010632Y005229D01*
X010320Y005229D02*
X010320Y004889D01*
X010093Y005229D01*
X010093Y004889D01*
X009952Y004945D02*
X009952Y005059D01*
X009838Y005059D01*
X009725Y005172D02*
X009725Y004945D01*
X009782Y004889D01*
X009895Y004889D01*
X009952Y004945D01*
X009952Y005172D02*
X009895Y005229D01*
X009782Y005229D01*
X009725Y005172D01*
X007873Y003311D02*
X007700Y003311D01*
X007700Y003181D01*
X007786Y003225D01*
X007830Y003225D01*
X007873Y003181D01*
X007873Y003094D01*
X007830Y003051D01*
X007743Y003051D01*
X007700Y003094D01*
X007578Y003094D02*
X007535Y003051D01*
X007448Y003051D01*
X007405Y003094D01*
X007405Y003268D01*
X007448Y003311D01*
X007535Y003311D01*
X007578Y003268D01*
X005823Y002861D02*
X005736Y002818D01*
X005650Y002731D01*
X005780Y002731D01*
X005823Y002688D01*
X005823Y002644D01*
X005780Y002601D01*
X005693Y002601D01*
X005650Y002644D01*
X005650Y002731D01*
X005528Y002644D02*
X005485Y002601D01*
X005398Y002601D01*
X005355Y002644D01*
X005355Y002818D01*
X005398Y002861D01*
X005485Y002861D01*
X005528Y002818D01*
X003753Y002860D02*
X003709Y002903D01*
X003753Y002860D02*
X003753Y002773D01*
X003709Y002730D01*
X003536Y002730D01*
X003492Y002773D01*
X003492Y002860D01*
X003536Y002903D01*
X003536Y003024D02*
X003492Y003068D01*
X003492Y003154D01*
X003536Y003198D01*
X003579Y003198D01*
X003753Y003024D01*
X003753Y003198D01*
X003753Y003319D02*
X003579Y003492D01*
X003536Y003492D01*
X003492Y003449D01*
X003492Y003362D01*
X003536Y003319D01*
X003753Y003319D02*
X003753Y003492D01*
X003103Y003449D02*
X003103Y003362D01*
X003059Y003319D01*
X002972Y003406D02*
X002972Y003449D01*
X003016Y003492D01*
X003059Y003492D01*
X003103Y003449D01*
X002972Y003449D02*
X002929Y003492D01*
X002886Y003492D01*
X002842Y003449D01*
X002842Y003362D01*
X002886Y003319D01*
X002842Y003111D02*
X003103Y003111D01*
X003103Y003024D02*
X003103Y003198D01*
X002929Y003024D02*
X002842Y003111D01*
X002886Y002903D02*
X002842Y002860D01*
X002842Y002730D01*
X003103Y002730D01*
X003016Y002730D02*
X003016Y002860D01*
X002972Y002903D01*
X002886Y002903D01*
X003016Y002816D02*
X003103Y002903D01*
X000890Y002921D02*
X000890Y002835D01*
X000847Y002791D01*
X000760Y002835D02*
X000760Y002921D01*
X000803Y002965D01*
X000847Y002965D01*
X000890Y002921D01*
X000760Y002835D02*
X000717Y002791D01*
X000673Y002791D01*
X000630Y002835D01*
X000630Y002921D01*
X000673Y002965D01*
X000630Y003086D02*
X000890Y003086D01*
X000890Y003259D01*
X000760Y003173D02*
X000760Y003086D01*
X000630Y003086D02*
X000630Y003259D01*
X000630Y003380D02*
X000630Y003554D01*
X000630Y003467D02*
X000890Y003467D01*
X000890Y002670D02*
X000890Y002497D01*
X000630Y002497D01*
X000630Y002670D01*
X000760Y002583D02*
X000760Y002497D01*
X000760Y002375D02*
X000673Y002375D01*
X000630Y002332D01*
X000630Y002202D01*
X000890Y002202D01*
X000803Y002202D02*
X000803Y002332D01*
X000760Y002375D01*
X000803Y002289D02*
X000890Y002375D01*
X000890Y005549D02*
X000630Y005549D01*
X000717Y005636D01*
X000630Y005723D01*
X000890Y005723D01*
X000847Y005844D02*
X000673Y005844D01*
X000630Y005887D01*
X000630Y005974D01*
X000673Y006017D01*
X000847Y006017D01*
X000890Y005974D01*
X000890Y005887D01*
X000847Y005844D01*
X000890Y006139D02*
X000630Y006139D01*
X000630Y006269D01*
X000673Y006312D01*
X000847Y006312D01*
X000890Y006269D01*
X000890Y006139D01*
X000890Y006433D02*
X000630Y006433D01*
X000630Y006607D01*
X000760Y006520D02*
X000760Y006433D01*
X000890Y006433D02*
X000890Y006607D01*
X001942Y010244D02*
X001942Y010374D01*
X001986Y010418D01*
X002072Y010418D01*
X002116Y010374D01*
X002116Y010244D01*
X002203Y010244D02*
X001942Y010244D01*
X002116Y010331D02*
X002203Y010418D01*
X002159Y010539D02*
X002203Y010582D01*
X002203Y010669D01*
X002159Y010712D01*
X001986Y010712D01*
X001942Y010669D01*
X001942Y010582D01*
X001986Y010539D01*
X002029Y010539D01*
X002072Y010582D01*
X002072Y010712D01*
X002482Y010621D02*
X002743Y010621D01*
X002743Y010534D02*
X002743Y010708D01*
X002699Y010829D02*
X002526Y011002D01*
X002699Y011002D01*
X002743Y010959D01*
X002743Y010872D01*
X002699Y010829D01*
X002526Y010829D01*
X002482Y010872D01*
X002482Y010959D01*
X002526Y011002D01*
X002482Y010621D02*
X002569Y010534D01*
X002526Y010413D02*
X002612Y010413D01*
X002656Y010370D01*
X002656Y010240D01*
X002656Y010326D02*
X002743Y010413D01*
X002743Y010240D02*
X002482Y010240D01*
X002482Y010370D01*
X002526Y010413D01*
X003032Y010370D02*
X003076Y010413D01*
X003162Y010413D01*
X003206Y010370D01*
X003206Y010240D01*
X003206Y010326D02*
X003293Y010413D01*
X003293Y010534D02*
X003293Y010708D01*
X003293Y010621D02*
X003032Y010621D01*
X003119Y010534D01*
X003032Y010370D02*
X003032Y010240D01*
X003293Y010240D01*
X003557Y010234D02*
X003557Y010364D01*
X003601Y010407D01*
X003687Y010407D01*
X003731Y010364D01*
X003731Y010234D01*
X003731Y010320D02*
X003817Y010407D01*
X003817Y010528D02*
X003774Y010528D01*
X003601Y010702D01*
X003557Y010702D01*
X003557Y010528D01*
X003557Y010234D02*
X003817Y010234D01*
X004132Y010234D02*
X004132Y010364D01*
X004176Y010408D01*
X004262Y010408D01*
X004306Y010364D01*
X004306Y010234D01*
X004393Y010234D02*
X004132Y010234D01*
X004306Y010321D02*
X004393Y010408D01*
X004349Y010529D02*
X004262Y010529D01*
X004262Y010659D01*
X004306Y010702D01*
X004349Y010702D01*
X004393Y010659D01*
X004393Y010572D01*
X004349Y010529D01*
X004262Y010529D02*
X004176Y010616D01*
X004132Y010702D01*
X004667Y010702D02*
X004667Y010528D01*
X004797Y010528D01*
X004754Y010615D01*
X004754Y010658D01*
X004797Y010702D01*
X004884Y010702D01*
X004927Y010658D01*
X004927Y010572D01*
X004884Y010528D01*
X004927Y010407D02*
X004841Y010320D01*
X004841Y010364D02*
X004841Y010234D01*
X004927Y010234D02*
X004667Y010234D01*
X004667Y010364D01*
X004711Y010407D01*
X004797Y010407D01*
X004841Y010364D01*
X005217Y010364D02*
X005261Y010407D01*
X005347Y010407D01*
X005391Y010364D01*
X005391Y010234D01*
X005391Y010320D02*
X005477Y010407D01*
X005477Y010234D02*
X005217Y010234D01*
X005217Y010364D01*
X005347Y010528D02*
X005217Y010658D01*
X005477Y010658D01*
X005347Y010702D02*
X005347Y010528D01*
X005772Y010616D02*
X006033Y010616D01*
X006033Y010702D02*
X006033Y010529D01*
X005989Y010408D02*
X006033Y010364D01*
X006033Y010278D01*
X005989Y010234D01*
X005816Y010234D01*
X005772Y010278D01*
X005772Y010364D01*
X005816Y010408D01*
X005859Y010529D02*
X005772Y010616D01*
X006322Y010659D02*
X006322Y010572D01*
X006366Y010529D01*
X006366Y010408D02*
X006322Y010364D01*
X006322Y010278D01*
X006366Y010234D01*
X006539Y010234D01*
X006583Y010278D01*
X006583Y010364D01*
X006539Y010408D01*
X006583Y010529D02*
X006409Y010702D01*
X006366Y010702D01*
X006322Y010659D01*
X006583Y010702D02*
X006583Y010529D01*
X006867Y010572D02*
X006867Y010658D01*
X006911Y010702D01*
X006954Y010702D01*
X006997Y010658D01*
X007041Y010702D01*
X007084Y010702D01*
X007127Y010658D01*
X007127Y010572D01*
X007084Y010528D01*
X007084Y010407D02*
X007127Y010364D01*
X007127Y010277D01*
X007084Y010234D01*
X006911Y010234D01*
X006867Y010277D01*
X006867Y010364D01*
X006911Y010407D01*
X006911Y010528D02*
X006867Y010572D01*
X006997Y010615D02*
X006997Y010658D01*
X007422Y010659D02*
X007552Y010529D01*
X007552Y010702D01*
X007422Y010659D02*
X007683Y010659D01*
X007639Y010408D02*
X007683Y010364D01*
X007683Y010278D01*
X007639Y010234D01*
X007466Y010234D01*
X007422Y010278D01*
X007422Y010364D01*
X007466Y010408D01*
X003293Y010829D02*
X003293Y011002D01*
X003293Y010916D02*
X003032Y010916D01*
X003119Y010829D01*
X004628Y016118D02*
X004855Y016344D01*
X004855Y016401D01*
X004798Y016458D01*
X004685Y016458D01*
X004628Y016401D01*
X004628Y016118D02*
X004855Y016118D01*
X004996Y016288D02*
X005223Y016288D01*
X005167Y016118D02*
X005167Y016458D01*
X004996Y016288D01*
X005754Y016718D02*
X005641Y016944D01*
X005868Y016944D02*
X005754Y016718D01*
X005733Y016458D02*
X005960Y016458D01*
X006101Y016458D02*
X006101Y016118D01*
X006328Y016118D01*
X006470Y016118D02*
X006640Y016118D01*
X006697Y016174D01*
X006697Y016231D01*
X006640Y016288D01*
X006470Y016288D01*
X006640Y016288D02*
X006697Y016344D01*
X006697Y016401D01*
X006640Y016458D01*
X006470Y016458D01*
X006470Y016118D01*
X006215Y016288D02*
X006101Y016288D01*
X006101Y016458D02*
X006328Y016458D01*
X006378Y016718D02*
X006434Y016718D01*
X006434Y016774D01*
X006378Y016774D01*
X006378Y016718D01*
X006236Y016774D02*
X006179Y016718D01*
X006066Y016718D01*
X006009Y016774D01*
X006123Y016888D02*
X006179Y016888D01*
X006236Y016831D01*
X006236Y016774D01*
X006179Y016888D02*
X006236Y016944D01*
X006236Y017001D01*
X006179Y017058D01*
X006066Y017058D01*
X006009Y017001D01*
X006021Y017318D02*
X006021Y017488D01*
X005965Y017544D01*
X005794Y017544D01*
X005794Y017318D01*
X005653Y017431D02*
X005426Y017431D01*
X005426Y017374D02*
X005426Y017488D01*
X005483Y017544D01*
X005596Y017544D01*
X005653Y017488D01*
X005653Y017431D01*
X005596Y017318D02*
X005483Y017318D01*
X005426Y017374D01*
X005285Y017374D02*
X005228Y017318D01*
X005115Y017318D01*
X005058Y017374D01*
X005115Y017488D02*
X005228Y017488D01*
X005285Y017431D01*
X005285Y017374D01*
X005115Y017488D02*
X005058Y017544D01*
X005058Y017601D01*
X005115Y017658D01*
X005228Y017658D01*
X005285Y017601D01*
X006163Y017601D02*
X006163Y017544D01*
X006219Y017488D01*
X006333Y017488D01*
X006390Y017431D01*
X006390Y017374D01*
X006333Y017318D01*
X006219Y017318D01*
X006163Y017374D01*
X006163Y017601D02*
X006219Y017658D01*
X006333Y017658D01*
X006390Y017601D01*
X006531Y017544D02*
X006588Y017544D01*
X006588Y017318D01*
X006644Y017318D02*
X006531Y017318D01*
X006777Y017318D02*
X006777Y017544D01*
X006947Y017544D01*
X007003Y017488D01*
X007003Y017318D01*
X007145Y017374D02*
X007202Y017318D01*
X007372Y017318D01*
X007372Y017261D02*
X007372Y017544D01*
X007202Y017544D01*
X007145Y017488D01*
X007145Y017374D01*
X007258Y017204D02*
X007315Y017204D01*
X007372Y017261D01*
X007320Y016458D02*
X007320Y016118D01*
X007433Y016118D02*
X007206Y016118D01*
X007206Y016344D02*
X007320Y016458D01*
X007575Y016458D02*
X007575Y016288D01*
X007688Y016344D01*
X007745Y016344D01*
X007801Y016288D01*
X007801Y016174D01*
X007745Y016118D01*
X007631Y016118D01*
X007575Y016174D01*
X007575Y016458D02*
X007801Y016458D01*
X006789Y016718D02*
X006562Y016718D01*
X006675Y016718D02*
X006675Y017058D01*
X006562Y016944D01*
X006588Y017658D02*
X006588Y017715D01*
X005733Y016458D02*
X005733Y016118D01*
X005733Y016288D02*
X005846Y016288D01*
X003367Y018334D02*
X003194Y018334D01*
X003280Y018334D02*
X003280Y018594D01*
X003194Y018507D01*
X003072Y018551D02*
X003029Y018594D01*
X002942Y018594D01*
X002899Y018551D01*
X002899Y018507D01*
X002942Y018464D01*
X003029Y018464D01*
X003072Y018421D01*
X003072Y018377D01*
X003029Y018334D01*
X002942Y018334D01*
X002899Y018377D01*
X002784Y020504D02*
X002827Y020547D01*
X002827Y020634D01*
X002784Y020677D01*
X002827Y020798D02*
X002827Y020972D01*
X002827Y020885D02*
X002567Y020885D01*
X002654Y020798D01*
X002611Y020677D02*
X002567Y020634D01*
X002567Y020547D01*
X002611Y020504D01*
X002784Y020504D01*
X003212Y020543D02*
X003256Y020500D01*
X003429Y020500D01*
X003473Y020543D01*
X003473Y020630D01*
X003429Y020673D01*
X003473Y020794D02*
X003473Y020968D01*
X003473Y020881D02*
X003212Y020881D01*
X003299Y020794D01*
X003256Y020673D02*
X003212Y020630D01*
X003212Y020543D01*
X003212Y021089D02*
X003212Y021262D01*
X003256Y021262D01*
X003429Y021089D01*
X003473Y021089D01*
X003802Y021132D02*
X003846Y021089D01*
X003889Y021089D01*
X003932Y021132D01*
X003932Y021219D01*
X003976Y021262D01*
X004019Y021262D01*
X004063Y021219D01*
X004063Y021132D01*
X004019Y021089D01*
X003976Y021089D01*
X003932Y021132D01*
X003932Y021219D02*
X003889Y021262D01*
X003846Y021262D01*
X003802Y021219D01*
X003802Y021132D01*
X003802Y020881D02*
X004063Y020881D01*
X004063Y020794D02*
X004063Y020968D01*
X003889Y020794D02*
X003802Y020881D01*
X003846Y020673D02*
X003802Y020630D01*
X003802Y020543D01*
X003846Y020500D01*
X004019Y020500D01*
X004063Y020543D01*
X004063Y020630D01*
X004019Y020673D01*
X002827Y021136D02*
X002784Y021093D01*
X002827Y021136D02*
X002827Y021223D01*
X002784Y021266D01*
X002741Y021266D01*
X002697Y021223D01*
X002697Y021180D01*
X002697Y021223D02*
X002654Y021266D01*
X002611Y021266D01*
X002567Y021223D01*
X002567Y021136D01*
X002611Y021093D01*
X005065Y022029D02*
X005065Y022159D01*
X005108Y022202D01*
X005195Y022202D01*
X005238Y022159D01*
X005238Y022029D01*
X005238Y022115D02*
X005325Y022202D01*
X005325Y022323D02*
X005325Y022497D01*
X005325Y022410D02*
X005065Y022410D01*
X005152Y022323D01*
X005065Y022029D02*
X005325Y022029D01*
X005796Y022828D02*
X005796Y022948D01*
X005796Y023188D01*
X005796Y023308D01*
X006276Y023408D02*
X006536Y023408D01*
X007016Y023308D02*
X007016Y022828D01*
X006605Y022079D02*
X006518Y022079D01*
X006475Y022035D01*
X006353Y022079D02*
X006353Y021862D01*
X006310Y021819D01*
X006223Y021819D01*
X006180Y021862D01*
X006180Y022079D01*
X006475Y021819D02*
X006648Y021992D01*
X006648Y022035D01*
X006605Y022079D01*
X006648Y021819D02*
X006475Y021819D01*
X006464Y020943D02*
X006464Y020683D01*
X006638Y020683D01*
X006759Y020683D02*
X006759Y020943D01*
X006932Y020943D01*
X007054Y020943D02*
X007184Y020943D01*
X007227Y020900D01*
X007227Y020726D01*
X007184Y020683D01*
X007054Y020683D01*
X007054Y020943D01*
X006846Y020813D02*
X006759Y020813D01*
X006759Y020683D02*
X006932Y020683D01*
X006343Y020640D02*
X006170Y020640D01*
X006048Y020726D02*
X006005Y020683D01*
X005875Y020683D01*
X005875Y020943D01*
X006005Y020943D01*
X006048Y020900D01*
X006048Y020856D01*
X006005Y020813D01*
X005875Y020813D01*
X005754Y020813D02*
X005667Y020813D01*
X005754Y020813D02*
X005754Y020726D01*
X005710Y020683D01*
X005624Y020683D01*
X005580Y020726D01*
X005580Y020900D01*
X005624Y020943D01*
X005710Y020943D01*
X005754Y020900D01*
X006005Y020813D02*
X006048Y020770D01*
X006048Y020726D01*
X005459Y020683D02*
X005372Y020770D01*
X005416Y020770D02*
X005286Y020770D01*
X005286Y020683D02*
X005286Y020943D01*
X005416Y020943D01*
X005459Y020900D01*
X005459Y020813D01*
X005416Y020770D01*
X007722Y020963D02*
X007766Y020920D01*
X007939Y020920D01*
X007983Y020963D01*
X007983Y021050D01*
X007939Y021093D01*
X007983Y021214D02*
X007983Y021388D01*
X007983Y021301D02*
X007722Y021301D01*
X007809Y021214D01*
X007766Y021093D02*
X007722Y021050D01*
X007722Y020963D01*
X007766Y021509D02*
X007722Y021552D01*
X007722Y021639D01*
X007766Y021682D01*
X007939Y021509D01*
X007983Y021552D01*
X007983Y021639D01*
X007939Y021682D01*
X007766Y021682D01*
X007766Y021509D02*
X007939Y021509D01*
X008251Y021238D02*
X008478Y021238D01*
X008365Y021351D02*
X008365Y021124D01*
X009855Y020198D02*
X009855Y019937D01*
X009985Y019937D01*
X010028Y019981D01*
X010028Y020024D01*
X009985Y020067D01*
X009855Y020067D01*
X009985Y020067D02*
X010028Y020111D01*
X010028Y020154D01*
X009985Y020198D01*
X009855Y020198D01*
X010149Y020111D02*
X010149Y019937D01*
X010149Y020067D02*
X010323Y020067D01*
X010323Y020111D02*
X010323Y019937D01*
X010323Y020111D02*
X010236Y020198D01*
X010149Y020111D01*
X010444Y020198D02*
X010618Y020198D01*
X010531Y020198D02*
X010531Y019937D01*
X009574Y018593D02*
X009487Y018593D01*
X009444Y018550D01*
X009322Y018550D02*
X009279Y018593D01*
X009192Y018593D01*
X009149Y018550D01*
X009149Y018507D01*
X009192Y018463D01*
X009279Y018463D01*
X009322Y018420D01*
X009322Y018376D01*
X009279Y018333D01*
X009192Y018333D01*
X009149Y018376D01*
X009444Y018333D02*
X009617Y018507D01*
X009617Y018550D01*
X009574Y018593D01*
X009617Y018333D02*
X009444Y018333D01*
X007894Y023974D02*
X007721Y023974D01*
X007677Y024017D01*
X007677Y024104D01*
X007721Y024147D01*
X007677Y024268D02*
X007677Y024442D01*
X007721Y024442D01*
X007894Y024268D01*
X007937Y024268D01*
X007894Y024147D02*
X007937Y024104D01*
X007937Y024017D01*
X007894Y023974D01*
X006394Y023996D02*
X006221Y023996D01*
X006308Y023996D02*
X006308Y024256D01*
X006221Y024169D01*
X006100Y024256D02*
X005926Y023996D01*
X006100Y023996D02*
X005926Y024256D01*
X004328Y024687D02*
X004285Y024644D01*
X004198Y024644D01*
X004155Y024687D01*
X004241Y024774D02*
X004285Y024774D01*
X004328Y024730D01*
X004328Y024687D01*
X004285Y024774D02*
X004328Y024817D01*
X004328Y024860D01*
X004285Y024904D01*
X004198Y024904D01*
X004155Y024860D01*
X004033Y024860D02*
X004033Y024774D01*
X003990Y024730D01*
X003860Y024730D01*
X003860Y024644D02*
X003860Y024904D01*
X003990Y024904D01*
X004033Y024860D01*
X003947Y024730D02*
X004033Y024644D01*
X002908Y024806D02*
X002735Y024806D01*
X002865Y024936D01*
X002865Y024676D01*
X002614Y024719D02*
X002614Y024936D01*
X002440Y024936D02*
X002440Y024719D01*
X002484Y024676D01*
X002570Y024676D01*
X002614Y024719D01*
X001898Y025311D02*
X001724Y025311D01*
X001854Y025441D01*
X001854Y025181D01*
X001603Y025181D02*
X001430Y025181D01*
X001516Y025181D02*
X001516Y025441D01*
X001430Y025355D01*
X001308Y025398D02*
X001265Y025441D01*
X001178Y025441D01*
X001135Y025398D01*
X001135Y025224D01*
X001178Y025181D01*
X001265Y025181D01*
X001308Y025224D01*
X001547Y025923D02*
X001721Y025923D01*
X001842Y025923D02*
X002015Y025923D01*
X002137Y025923D02*
X002137Y026183D01*
X002267Y026183D01*
X002310Y026140D01*
X002310Y025967D01*
X002267Y025923D01*
X002137Y025923D01*
X001929Y026053D02*
X001842Y026053D01*
X001842Y026183D02*
X001842Y025923D01*
X001842Y026183D02*
X002015Y026183D01*
X001547Y026183D02*
X001547Y025923D01*
D16*
X005796Y023188D02*
X005817Y023186D01*
X005837Y023181D01*
X005856Y023172D01*
X005873Y023160D01*
X005888Y023145D01*
X005900Y023128D01*
X005909Y023109D01*
X005914Y023089D01*
X005916Y023068D01*
X005914Y023047D01*
X005909Y023027D01*
X005900Y023008D01*
X005888Y022991D01*
X005873Y022976D01*
X005856Y022964D01*
X005837Y022955D01*
X005817Y022950D01*
X005796Y022948D01*
D17*
X005772Y022557D02*
X005459Y022243D01*
X005615Y022243D02*
X005615Y022557D01*
X005459Y022557D02*
X005772Y022243D01*
X005772Y022400D02*
X005459Y022400D01*
D18*
X006531Y001349D03*
D19*
X005416Y001344D02*
X005390Y001369D01*
X005416Y001344D02*
X005416Y001294D01*
X005390Y001269D01*
X005290Y001269D01*
X005265Y001294D01*
X005265Y001344D01*
X005290Y001369D01*
X005290Y001416D02*
X005315Y001416D01*
X005340Y001441D01*
X005340Y001516D01*
X005290Y001516D02*
X005265Y001491D01*
X005265Y001441D01*
X005290Y001416D01*
X005290Y001516D02*
X005390Y001516D01*
X005416Y001491D01*
X005416Y001441D01*
X005390Y001416D01*
X005416Y002029D02*
X005416Y002129D01*
X005416Y002176D02*
X005416Y002276D01*
X005416Y002226D02*
X005265Y002226D01*
X005315Y002176D01*
X005265Y002029D02*
X005416Y002029D01*
D20*
X003578Y015719D02*
X002633Y015719D01*
X001925Y015916D02*
X001925Y017845D01*
X002633Y018081D02*
X003578Y018081D01*
X004287Y017884D02*
X004287Y015916D01*
X002417Y016900D02*
X002419Y016952D01*
X002425Y017004D01*
X002435Y017055D01*
X002448Y017105D01*
X002466Y017155D01*
X002487Y017202D01*
X002511Y017248D01*
X002540Y017292D01*
X002571Y017334D01*
X002605Y017373D01*
X002642Y017410D01*
X002682Y017443D01*
X002725Y017474D01*
X002769Y017501D01*
X002815Y017525D01*
X002864Y017545D01*
X002913Y017561D01*
X002964Y017574D01*
X003015Y017583D01*
X003067Y017588D01*
X003119Y017589D01*
X003171Y017586D01*
X003223Y017579D01*
X003274Y017568D01*
X003324Y017554D01*
X003373Y017535D01*
X003420Y017513D01*
X003465Y017488D01*
X003509Y017459D01*
X003550Y017427D01*
X003589Y017392D01*
X003624Y017354D01*
X003657Y017313D01*
X003687Y017271D01*
X003713Y017226D01*
X003736Y017179D01*
X003755Y017130D01*
X003771Y017080D01*
X003783Y017030D01*
X003791Y016978D01*
X003795Y016926D01*
X003795Y016874D01*
X003791Y016822D01*
X003783Y016770D01*
X003771Y016720D01*
X003755Y016670D01*
X003736Y016621D01*
X003713Y016574D01*
X003687Y016529D01*
X003657Y016487D01*
X003624Y016446D01*
X003589Y016408D01*
X003550Y016373D01*
X003509Y016341D01*
X003465Y016312D01*
X003420Y016287D01*
X003373Y016265D01*
X003324Y016246D01*
X003274Y016232D01*
X003223Y016221D01*
X003171Y016214D01*
X003119Y016211D01*
X003067Y016212D01*
X003015Y016217D01*
X002964Y016226D01*
X002913Y016239D01*
X002864Y016255D01*
X002815Y016275D01*
X002769Y016299D01*
X002725Y016326D01*
X002682Y016357D01*
X002642Y016390D01*
X002605Y016427D01*
X002571Y016466D01*
X002540Y016508D01*
X002511Y016552D01*
X002487Y016598D01*
X002466Y016645D01*
X002448Y016695D01*
X002435Y016745D01*
X002425Y016796D01*
X002419Y016848D01*
X002417Y016900D01*
X008224Y017845D02*
X008224Y015916D01*
X008933Y015719D02*
X009878Y015719D01*
X010586Y015916D02*
X010586Y017884D01*
X009878Y018081D02*
X008933Y018081D01*
X008716Y016900D02*
X008718Y016952D01*
X008724Y017004D01*
X008734Y017055D01*
X008747Y017105D01*
X008765Y017155D01*
X008786Y017202D01*
X008810Y017248D01*
X008839Y017292D01*
X008870Y017334D01*
X008904Y017373D01*
X008941Y017410D01*
X008981Y017443D01*
X009024Y017474D01*
X009068Y017501D01*
X009114Y017525D01*
X009163Y017545D01*
X009212Y017561D01*
X009263Y017574D01*
X009314Y017583D01*
X009366Y017588D01*
X009418Y017589D01*
X009470Y017586D01*
X009522Y017579D01*
X009573Y017568D01*
X009623Y017554D01*
X009672Y017535D01*
X009719Y017513D01*
X009764Y017488D01*
X009808Y017459D01*
X009849Y017427D01*
X009888Y017392D01*
X009923Y017354D01*
X009956Y017313D01*
X009986Y017271D01*
X010012Y017226D01*
X010035Y017179D01*
X010054Y017130D01*
X010070Y017080D01*
X010082Y017030D01*
X010090Y016978D01*
X010094Y016926D01*
X010094Y016874D01*
X010090Y016822D01*
X010082Y016770D01*
X010070Y016720D01*
X010054Y016670D01*
X010035Y016621D01*
X010012Y016574D01*
X009986Y016529D01*
X009956Y016487D01*
X009923Y016446D01*
X009888Y016408D01*
X009849Y016373D01*
X009808Y016341D01*
X009764Y016312D01*
X009719Y016287D01*
X009672Y016265D01*
X009623Y016246D01*
X009573Y016232D01*
X009522Y016221D01*
X009470Y016214D01*
X009418Y016211D01*
X009366Y016212D01*
X009314Y016217D01*
X009263Y016226D01*
X009212Y016239D01*
X009163Y016255D01*
X009114Y016275D01*
X009068Y016299D01*
X009024Y016326D01*
X008981Y016357D01*
X008941Y016390D01*
X008904Y016427D01*
X008870Y016466D01*
X008839Y016508D01*
X008810Y016552D01*
X008786Y016598D01*
X008765Y016645D01*
X008747Y016695D01*
X008734Y016745D01*
X008724Y016796D01*
X008718Y016848D01*
X008716Y016900D01*
D21*
X007159Y012901D02*
X007159Y012594D01*
D22*
X009745Y011457D02*
X009882Y011594D01*
X009882Y011184D01*
X009745Y011184D02*
X010019Y011184D01*
X010019Y009994D02*
X009745Y009994D01*
X010019Y009994D02*
X010019Y009925D01*
X009745Y009652D01*
X009745Y009584D01*
X011745Y009652D02*
X011813Y009584D01*
X011950Y009584D01*
X012019Y009652D01*
X012019Y009720D01*
X011950Y009789D01*
X011813Y009789D01*
X011745Y009857D01*
X011745Y009925D01*
X011813Y009994D01*
X011950Y009994D01*
X012019Y009925D01*
X012019Y009857D01*
X011950Y009789D01*
X011813Y009789D02*
X011745Y009720D01*
X011745Y009652D01*
X011745Y011184D02*
X012019Y011457D01*
X012019Y011525D01*
X011950Y011594D01*
X011813Y011594D01*
X011745Y011525D01*
X011745Y011184D02*
X012019Y011184D01*
M02*
