%
M48
M72
T01C0.0118
T02C0.0120
T03C0.0197
T04C0.0236
T05C0.0260
T06C0.0276
T07C0.0315
T08C0.0354
T09C0.0394
T10C0.0400
%
T01
X810Y1019
X1360Y1019
X1910Y1019
X2460Y1019
X3010Y1019
X3560Y1019
X4110Y1019
X4660Y1019
X4630Y1579
X5330Y1779
X5330Y2229
X5380Y2629
X5930Y2669
X6530Y2669
X7130Y2669
X7730Y2669
X8330Y2669
X8930Y2669
X9530Y2669
X10130Y2669
X10730Y2669
X11330Y2669
X11830Y2669
X11830Y3169
X11830Y3769
X11830Y4369
X5310Y1019
X4630Y2379
X4630Y2779
X4380Y3079
X4280Y3429
X4930Y3429
T02
X6050Y4659
X6600Y4659
X7150Y4659
X7650Y4659
X6740Y5589
X6740Y6539
X5740Y6539
X5740Y5589
X4800Y6709
X4800Y7209
X3800Y7509
X3750Y8209
X4750Y8809
X5900Y9009
X6950Y9009
X7650Y7609
X9290Y8339
X9800Y8809
X8800Y10959
X6550Y13359
X5350Y10909
X4800Y10909
X3980Y10289
X3700Y11309
X3700Y12859
X4150Y17709
X5550Y18409
X4550Y19409
X4100Y19409
X3700Y19809
X3350Y20359
X1800Y20259
X1000Y22909
X1400Y24609
X1400Y25109
X2000Y26059
X4500Y23409
X5750Y25109
X6150Y25109
X6600Y25109
X7450Y24259
X7200Y23959
X8500Y23009
X10150Y21309
X10990Y22889
X11310Y22889
X11700Y22889
X11660Y19339
X11520Y19089
X11380Y19339
X7500Y20209
X4600Y26009
X1950Y6109
X2950Y3709
X3650Y1459
X6200Y3209
X8000Y3159
T03
X7348Y25709
X5163Y25709
T04
X5488Y24882
X7023Y24882
T05
X10600Y11339
X11100Y11339
X11100Y10839
X10600Y10839
X10600Y10339
X11100Y10339
X11100Y9839
X10600Y9839
T06
X10968Y24381
X9968Y24381
X8968Y24381
T07
X6756Y12332
X5756Y12332
T08
X5756Y21375
X6756Y21375
T09
X10600Y12964
X11600Y12964
T10
X11500Y8059
X11500Y7059
X11500Y6059
X11500Y5059
M30
