G75*
G70*
%OFA0B0*%
%FSLAX24Y24*%
%IPPOS*%
%LPD*%
%AMOC8*
5,1,8,0,0,1.08239X$1,22.5*
%
%ADD10R,0.0220X0.0500*%
%ADD11R,0.0551X0.0354*%
%ADD12R,0.0354X0.0315*%
%ADD13R,0.0236X0.0236*%
%ADD14R,0.0315X0.0354*%
%ADD15R,0.1811X0.0394*%
%ADD16R,0.1339X0.0630*%
%ADD17R,0.0315X0.0118*%
%ADD18R,0.0118X0.0315*%
%ADD19R,0.0157X0.0531*%
%ADD20R,0.0591X0.0748*%
%ADD21R,0.0472X0.0138*%
%ADD22R,0.0138X0.0472*%
%ADD23R,0.0394X0.0394*%
%ADD24R,0.0394X0.0787*%
%ADD25R,0.1102X0.0315*%
%ADD26R,0.0240X0.0180*%
%ADD27R,0.0551X0.0827*%
%ADD28R,0.0433X0.0551*%
%ADD29R,0.0630X0.0787*%
D10*
X006036Y022558D03*
X006406Y022558D03*
X006776Y022558D03*
X006776Y023578D03*
X006036Y023578D03*
D11*
X003677Y026115D03*
X002732Y026115D03*
D12*
X003480Y025289D03*
X004080Y025289D03*
D13*
X002680Y025289D03*
X002280Y025289D03*
X002720Y022079D03*
X002720Y021679D03*
X003320Y021679D03*
X003320Y022079D03*
X003910Y022079D03*
X003910Y021679D03*
X007830Y022099D03*
X007830Y022499D03*
X007830Y023169D03*
X007830Y023569D03*
X007550Y009859D03*
X007550Y009459D03*
X007000Y009459D03*
X007000Y009859D03*
X006450Y009859D03*
X006450Y009459D03*
X005900Y009459D03*
X005900Y009859D03*
X005350Y009859D03*
X005350Y009459D03*
X004800Y009459D03*
X004800Y009859D03*
X004250Y009859D03*
X004250Y009459D03*
X003700Y009459D03*
X003700Y009859D03*
X003150Y009859D03*
X003150Y009459D03*
X002600Y009459D03*
X002600Y009859D03*
X002050Y009859D03*
X002050Y009459D03*
X005400Y003209D03*
X005800Y003209D03*
X006600Y003209D03*
X007000Y003209D03*
X003650Y002359D03*
X003650Y001959D03*
X003000Y001959D03*
X003000Y002359D03*
D14*
X005230Y022949D03*
X005230Y023549D03*
D15*
X009142Y022577D03*
X009142Y021790D03*
D16*
X011189Y020845D03*
X011189Y023522D03*
D17*
X003412Y023495D03*
X003412Y023692D03*
X003412Y023888D03*
X003412Y024085D03*
X003412Y023298D03*
X003412Y023101D03*
X001837Y023101D03*
X001837Y023298D03*
X001837Y023495D03*
X001837Y023692D03*
X001837Y023888D03*
X001837Y024085D03*
D18*
X002133Y024381D03*
X002330Y024381D03*
X002526Y024381D03*
X002723Y024381D03*
X002920Y024381D03*
X003117Y024381D03*
X003117Y022806D03*
X002920Y022806D03*
X002723Y022806D03*
X002526Y022806D03*
X002330Y022806D03*
X002133Y022806D03*
D19*
X005744Y024655D03*
X006000Y024655D03*
X006256Y024655D03*
X006511Y024655D03*
X006767Y024655D03*
D20*
X006649Y025709D03*
X005862Y025705D03*
D21*
X004267Y007900D03*
X004267Y007624D03*
X004267Y007349D03*
X004267Y007073D03*
X004267Y006797D03*
X004267Y006522D03*
X004267Y006246D03*
X004267Y005971D03*
X004267Y005695D03*
X004267Y005420D03*
X004267Y005144D03*
X004267Y004868D03*
X004267Y004593D03*
X004267Y004317D03*
X008244Y004317D03*
X008244Y004593D03*
X008244Y004868D03*
X008244Y005144D03*
X008244Y005420D03*
X008244Y005695D03*
X008244Y005971D03*
X008244Y006246D03*
X008244Y006522D03*
X008244Y006797D03*
X008244Y007073D03*
X008244Y007349D03*
X008244Y007624D03*
X008244Y007900D03*
D22*
X007909Y008294D03*
X007633Y008294D03*
X007358Y008294D03*
X007082Y008294D03*
X006807Y008294D03*
X006531Y008294D03*
X006256Y008294D03*
X005980Y008294D03*
X005704Y008294D03*
X005429Y008294D03*
X005153Y008294D03*
X004878Y008294D03*
X004602Y008294D03*
X004602Y003923D03*
X004878Y003923D03*
X005153Y003923D03*
X005429Y003923D03*
X005704Y003923D03*
X005980Y003923D03*
X006256Y003923D03*
X006531Y003923D03*
X006807Y003923D03*
X007082Y003923D03*
X007358Y003923D03*
X007633Y003923D03*
X007909Y003923D03*
D23*
X008283Y003884D03*
X007200Y005164D03*
X006256Y005164D03*
X006256Y006109D03*
X006256Y007053D03*
X007200Y007053D03*
X007200Y006109D03*
X005311Y006109D03*
X005311Y007053D03*
X004228Y008333D03*
X005311Y005164D03*
X004228Y003884D03*
X008283Y008333D03*
D24*
X008815Y001349D03*
X006059Y001349D03*
D25*
X007437Y001028D03*
X007437Y001670D03*
D26*
X004986Y001779D03*
X004986Y002159D03*
X004986Y001399D03*
X004986Y001019D03*
D27*
X003992Y015109D03*
X002220Y015109D03*
X002220Y018692D03*
X003992Y018692D03*
X008519Y018692D03*
X010291Y018692D03*
X010291Y015109D03*
X008519Y015109D03*
D28*
X006610Y019085D03*
X005901Y019085D03*
X005901Y020227D03*
X006610Y020227D03*
D29*
X001800Y001846D03*
X001800Y003971D03*
X001800Y005046D03*
X001800Y007171D03*
M02*
